<?xml version="1.0" encoding="utf-8"?>
<!-- Generator: Adobe Illustrator 21.0.0, SVG Export Plug-In . SVG Version: 6.00 Build 0)  -->
<svg version="1.1" baseProfile="tiny" id="Layer_1" xmlns="http://www.w3.org/2000/svg" xmlns:xlink="http://www.w3.org/1999/xlink"
	 x="0px" y="0px" viewBox="0 0 300 300" xml:space="preserve">
<path fill="#418FDE" d="M-820.3-979.5h471.4v305.7h-471.4V-979.5z"/>
<path fill="#FFFFFF" d="M-584.6-903.1c-10.4,0-20.2,2.4-29,6.7c-12.6,6.2-22.9,16.2-29.1,28.5c-4.4,8.6-6.7,18.1-6.7,27.8
	c0,6.1,0.9,12.1,2.6,17.8l1.5-0.4c-1.6-5.4-2.5-11-2.6-16.6h11.7c0.1,4.8,0.8,9.4,2.2,13.8l1.5-0.4c-1.4-4.4-2.1-8.9-2.2-13.5h10.6
	c0,1.5,0.2,3,0.4,4.5c-0.7,0.1-1.4,0.3-1.4,0.3l-0.3,1c-0.7,0.1-1.2,1.3-1.2,1.3c-0.6,0.2-1,0.9-0.9,1.1c0.2,0.2-0.3,0.3-0.3,0.3
	v1.4l-0.3,0.5l0.1,1.5c0.4,0,0.3,0.7,0.3,0.7c-0.7,0.1-0.5,0.9-0.5,0.9l-1.4,0.5l-0.3,0.4l-1.7-0.1l-0.5,0.5v0
	c-0.2-0.4-0.3-0.8-0.4-1.3l-1.5,0.4c0,0.2,0.1,0.3,0.2,0.4h-1.9l-0.1-0.3l-0.7-0.1l-0.1-0.7l-1,0.1l-0.2,0.4l-1,0.1
	c0.1,0.7-1,1.6-1.2,1.4c-0.1-0.3-0.9-1-0.5-1.1c0.3-0.1,1.2-0.3,1.2-0.3v-0.5l-2.4-0.1l-0.3,0.4l-1,0.1v1l-0.5,0.1
	c-0.3,0.2,0.1,0.9,0.1,0.9c0.5,0.5-0.1,1.2-0.1,1.2c-0.4,0.4,0.3,1.1,0.3,1.1c0.5,0.1-0.3,0.5-0.3,0.5c0.1,0.6,0.5,0.8,0.5,0.8
	c-0.4,0.7,0.3,1,0.3,1l0.1,1.1l0.5,0.3v0.7l0.3,0.5h1l-0.1-1.6c-0.9-1,0.8-1.3,0.8-0.9c0.1,0.4,0.8,0.6,0.8,0.6
	c0.1,1,1.2,1.5,1.6,0.6c0.3-1,0.6-0.4,0.8,0.1c0.2,0.5,1.4,1.5,1.4,1.5h1l0.1,0.9c1.1-0.1,1.4,0.1,1.9,1.5c0.5,1.5,1.7,1.9,1.7,1.9
	l0.9-0.1c0-0.8,0.9,0.1,0.9,0.5c0,0.4,1.8,1.9,1.8,1.9l1.8,0.4l0.3,0.3c1.1,1.3,2.2,2.6,3.5,3.9l-8.3,8
	c-7.2-7.1-12.5-15.9-15.4-25.5l-1.5,0.4c3.1,10.2,8.7,19.4,16.4,26.8c5.2,5.1,11.3,9.2,17.9,12.3l0.8-1.3c-6.2-2.9-12-6.8-17-11.5
	l8.3-8c4.2,4,9.1,7.3,14.5,9.6l0.8-1.3c-5.2-2.3-10-5.5-14.1-9.4l1.5-1.5c0.1,0.2,0.1,0.4,0.2,0.5c0.1,1,0.6,0.8,0.6,0.8l3.7-0.1
	l1.3-1.1l3.3-0.1c1.7-0.1,0.7-2.3,0.3-2.3c-0.2-0.1-0.2-0.4-0.2-0.8c2.7,2,5.5,3.6,8.6,4.9l0.8-1.3c-3.5-1.4-6.8-3.4-9.8-5.8
	l-1.8-1.6l8.2-8c3.3,3.1,7.4,5.2,11.9,6.2c-0.2,0.1-0.3,0.3-0.2,0.4c0.1,0.3-0.5,0.6-0.5,0.6l-0.6,0.2l-0.4,0.6l-0.8,0.3l-0.1,1.4
	l-0.4,0.2v0.6l-0.5,0.1v0.3l-0.7,0.1l0.4,1l0.5,0.3c0.9,0.1,0.5,1.2,0.5,1.2l0.5,0.1l0.3,0.7l0.5,1c0.2,0.8,0.8,0.6,1.1,0.5
	c0.3-0.1,0.5,0.8,0.5,0.8l2.6,0.1c0,0-0.1,0.3,0.3,0.4c0.2,0.1,1.3,0.1,2.2,0.2v1.1c-4.8-0.1-9.4-1-13.8-2.8l-0.8,1.3
	c4.6,1.9,9.5,2.9,14.6,3v10.3c-6.8-0.1-13.6-1.6-19.8-4.3l-0.8,1.3c6.5,2.9,13.5,4.4,20.6,4.5v11.4c-9.1-0.1-18.1-2.1-26.4-5.9
	l-0.8,1.3c8.7,4.1,18.3,6.1,27.9,6.1c10.3,0,20.2-2.3,29.2-6.7c6.1-3,11.7-7,16.6-11.7c5.1-4.9,9.3-10.7,12.5-17.1l0,0
	c4.3-8.5,6.5-17.9,6.5-27.5c0-8.2-1.6-16.2-4.7-23.6c-3.3-7.9-8.1-15-14.3-20.9c-6.2-6-13.5-10.8-21.6-13.9
	C-568.1-901.5-576.3-903.1-584.6-903.1L-584.6-903.1z M-585.3-901.5v11.4c-7.6,0.1-15.2,1.9-22,5.2c-4.8,2.3-9.2,5.3-13,8.9
	l-8.3-8.1c4.7-4.4,10-8.1,15.9-11C-604.3-899.2-594.9-901.4-585.3-901.5L-585.3-901.5z M-583.8-901.5c8,0.1,15.7,1.6,22.8,4.4v0
	c7.6,3,14.6,7.4,20.5,13l-7,6.8c-0.2,0.1-0.5,0.1-0.7,0c-0.5-0.2,0.2-0.6,0.2-0.6v-0.5l-0.4-0.4c0,0-1.1,0.1-1.2-0.1
	c-0.1-0.3-0.2-0.7-0.3-1l-0.1-1.1l-0.5-0.2l-0.1-0.4l-0.7,0.1v-0.8l-0.4-0.1l-0.4-0.2l-0.1-0.8l-1.4-0.1l-0.5-0.6l-0.5-0.8l-1.6-0.1
	l-0.4-0.4l-0.7-0.1l-0.5-0.2l-0.2,0.3l-1.2,0.1l-0.1,0.4c-0.4,0.2-1.4,0.2-2.3,0.2c-1.3-0.6-2.6-1.2-4-1.8l-0.6,1.4
	c1.1,0.4,2.2,0.9,3.2,1.4c-0.1,0.2-0.2,0.4-0.3,0.4c-0.3,0-0.2,0.8-0.2,0.8s0.9,0,1.1,0.1c0.3,0.1,0.3,0.7,0.3,0.7
	c1-0.1,1.4,1.2,1.2,1.5c-0.1,0.3,0.4,0.3,0.4,0.3s0,1-0.1,1.3c-0.1,0.3,0.9,0.5,1.1,0.8c0.3,0.4-0.1,1.7-0.3,1.7
	c-0.2,0.1,0.5,0.3,0.5,0.6c-0.1,0.3,0.2,0,0.3,0.5l0.2,1.6l0.9,0.1c0.1-0.8,1.8-0.9,2.1-0.8c1.1,0.4,2,2.1,2,2.4s-0.7,0.5-0.7,0.5
	l0,0.4l-2.3,2.2c-0.2-0.2-0.5-0.2-0.6-0.1c-0.3,0.2-0.2-1.4-0.2-1.4s0.6-0.4,0.9-0.2c0.3,0.2-2.2-3.2-2.7-2.9
	c-0.5,0.3-1.7-0.3-1.6-0.9c0.1-0.6-2.4-2.5-2.4-2.5s-0.8-0.5-0.9-0.1c-0.1,0.4-0.4,0.6,0,0.8c0.4,0.2,0.3-0.3,0.8,0.1
	c0.5,0.5,1.3,1,1,1.4c-0.3,0.4-0.7,0.5-0.7,0.5l0.5,0.5h0.7l0.1,1.1c0,0,0.8,0.4,1,0.8c0.1,0.3,0.2,0.5,0.1,0.7
	c-1.4-1.1-3-2.1-4.6-2.9c0-0.1,0-0.2,0-0.3c-0.1-0.5,0.5-0.6,0.8-0.1l0.7-0.1l0.1-0.6l-0.9-0.7h-0.7c0,0-0.1,0.5-0.5,0.3
	c-0.5-0.2-0.2-0.1-0.6-0.2c-0.4-0.1-0.3,0.7-0.2,1c-1-0.5-2-1-3.1-1.4c-4.5-1.8-9.3-2.7-14.1-2.8v-5.7c0.4,0,0.6-0.2,0.7-0.3
	c0.1-0.3,0.1-0.3,0.5-0.4c0.4-0.1-0.1-0.8-0.5-0.8c-0.3,0.1-0.5,0-0.7-0.2v-2.9c6.2,0.1,12.3,1.3,18,3.5l0.6-1.4
	c-5.8-2.3-12.1-3.6-18.6-3.6L-583.8-901.5z M-572.9-898.8l-0.6,0.4l-0.4-0.3l-0.2,0.3l0.5,0.3l0.1,0.1l0.1-0.1l0.7-0.5L-572.9-898.8
	z M-569.9-897.3l-0.5,0.4l-0.3-0.3l-0.3,0.3l0.5,0.5l0.1,0.1l0.1-0.1l0.7-0.5L-569.9-897.3z M-632.8-897c-6.5,2.5-13.5,5-17.7,11.5
	c-2.5,3.8-2.8,8.3-4.8,12.2c3.6-3.3,7.8-5.7,10.8-9.6C-640.8-887.6-637.6-892.9-632.8-897L-632.8-897z M-536.3-897
	c4.8,4.1,8,9.3,11.6,14c3.1,3.9,7.2,6.3,10.8,9.6c-1.9-3.9-2.3-8.4-4.8-12.2C-522.8-892-529.8-894.5-536.3-897L-536.3-897z
	 M-574.4-896.2c-0.3,0-0.8,0.1-0.8,0.3c-0.1,0.3-0.5,0.3-0.5,0.3l-1.5,0.1c-0.1,0.4-0.9,0.6-1,0.4c-0.2-0.6-1,0.7-0.1,1
	c0.8,0.3,1.7,0,1.7,0l0.2-0.4l3.3,0.1c0.3-0.3,0.4-0.6,0.4-0.6s0.8-0.3,1.1-0.1c0.3,0.1,0.1-0.9-0.3-0.8c-0.3,0.1-1,0.1-1,0.1h-1.2
	C-574-896.1-574.2-896.1-574.4-896.2L-574.4-896.2z M-580.2-894.9l-0.9,0.3l-0.9,0.6l-1,0.1l-0.5,0.6l2.1,0.2l0.4,0.6l1.5,0.1l1,1
	c0.8,0.3,1-0.1,0.5-0.6l-0.9-0.8v-0.7l-0.3-0.3l-0.3-0.9L-580.2-894.9z M-585.4-888.7v10.3c-5.7,0.1-11.3,1.4-16.4,3.9
	c-3.7,1.8-7.1,4.1-10.1,6.8l-7.5-7.3c3.8-3.6,8-6.5,12.6-8.7C-600-886.9-592.7-888.6-585.4-888.7L-585.4-888.7z M-650.4-888.4
	c-3.3,0.8-6.1,2.9-8.6,5.6c-5.2,5.6-4.7,13.9-4.1,21.2c0.2,2.3,0.1,4.2-0.2,6.5c1.6-3.1,4.1-6.1,7.2-8.3c6.8-5,14.1-11.4,14.2-19.8
	c-2.2,6.1-9,8.6-13.6,12.7c-2.3,2.1-4.1,4.7-5.3,7.6l-0.2-0.1c0.6-2.4,1.6-4.6,2.3-7C-656.4-876.4-656.8-884.1-650.4-888.4
	L-650.4-888.4z M-518.8-888.4c6.4,4.3,6.1,12,8.1,18.4c0.7,2.4,1.8,4.6,2.3,7l-0.2,0.1c-1.2-2.9-3-5.5-5.3-7.6
	c-4.5-4.1-11.3-6.7-13.6-12.7c0.1,8.4,7.5,14.9,14.2,19.8c3,2.2,5.6,5.2,7.2,8.3c-0.3-2.3-0.4-4.3-0.2-6.5c0.7-7.4,1.1-15.6-4-21.2
	C-512.7-885.5-515.5-887.5-518.8-888.4L-518.8-888.4z M-554.2-887.1c-0.5,0-1.3,0.3-1.2,0.7c0.1,0.3,0.3,0.6,0.9,0.8l1,0.3
	c0,0,1.2,1.4,1.2,0.7c-0.1-1.9-1-2-1.4-2.4C-553.9-887-554.1-887.1-554.2-887.1L-554.2-887.1z M-574.7-886.3l-0.3,0.6l0.4,0.2
	l0.3-0.6L-574.7-886.3z M-573.5-885.7c0,0-0.4,0.5-0.7,0.6c0.3,0.2,0.7,0.4,0.7,0.4c0.5,0,0.9,0.4,0.9,0.6c0,0.2,0.7,0.1,0.7,0.1
	l0.1-0.5l-0.5-0.6l-0.5-0.3C-572.8-885.4-573.5-885.4-573.5-885.7C-573.5-885.7-573.5-885.7-573.5-885.7L-573.5-885.7z
	 M-576.3-885.3l0,0.4l0.6,0.1l0.4,0.6l0.3-0.2l-0.5-0.7l-0.1-0.1l-0.1,0L-576.3-885.3z M-591.4-883.6c-0.4,0-0.7,0.1-0.7,0.2
	c0.1,0.3,0.6,0.7,0.6,0.7s1,0.1,1,0.3c0.1,0.2,0.7,0.3,0.8,0.1c0.1-0.2,0.3-0.6-0.3-0.6c-0.6,0-0.5-0.3-0.7-0.5
	C-590.7-883.6-591.1-883.7-591.4-883.6L-591.4-883.6z M-539.4-883c5.7,5.7,10.3,12.4,13.4,19.9c2.9,7.1,4.5,14.6,4.6,22.3h-11.7
	c-0.1-7-1.7-13.9-4.7-20.2c0.1-0.3,0.3-0.7,0.7-0.6c0.7,0.2,0.2-1.4,0.2-1.4s-0.9-0.6-0.8-1c0.1-0.3-0.9-1-0.9-1.2
	c0.1-0.3-0.9-0.8-0.8-1c0.1-0.3-0.5-1-0.5-1l-1-0.9l-0.1-0.6l-0.8-0.1l-1.6-1.9l0.1-0.5l-0.5-0.1v-0.7l-0.5-0.3l-0.7-0.1l-1.4-1.5
	l-0.1-0.7h-0.7l0.1-1.1L-539.4-883z M-574.8-883v0.6l0.7,0.1l-0.2-0.5L-574.8-883z M-629.8-883l8.3,8.1c-3.9,3.9-7.1,8.3-9.5,13.2
	c-3.2,6.5-5,13.6-5.1,20.9h-11.7c0.1-9.3,2.3-18.2,6.4-26.3C-638.3-873-634.5-878.3-629.8-883L-629.8-883z M-571.6-880
	c-0.1,0-0.1,0-0.1,0.1c0,0.2,0.3,0.2,0.4,0.6c0.1,0.4,0.1,1,0.7,1.2c0.6,0.1,0.7,0.3,0.8,0.5c0.1,0.3,0.8,0.3,0.8,0.3l0.5,0.3
	l1.6,1.3v-0.5c0,0-0.1-0.5-0.4-0.5c-0.3,0-0.9-0.4-0.8-0.6c0.1-0.3-1.1-0.5-1.1-0.5s-1.1-1-0.7-0.9c0.4,0.1,0.2-0.5,0.2-0.5
	s-0.8,0.1-1,0.1c-0.2-0.1-0.1-0.6-0.1-0.6S-571.4-880-571.6-880L-571.6-880z M-607.6-879.5l-0.3,0.3l0.4,0.4l0.3-0.3L-607.6-879.5z
	 M-664.1-876.9c-0.2,0-0.3,0.1-0.4,0.2c-4.5,5.6-7.5,11.7-7.5,19.1c0,9.2,5.5,15.7,6.1,24.3c1.4-9,9.2-15.5,13.2-23.4
	c1.6-3.1,2.6-6.6,3-10c-0.6,1.5-1.5,2.9-2.7,3.9c-5.3,4.8-11.4,9.6-12.6,16.5c-0.2,1-0.3,2-0.5,2.9c-0.2,0.1-0.2-0.2-0.3-0.2
	l0.7-8.5C-664.5-860.3-669-869.6-664.1-876.9L-664.1-876.9z M-505-876.9c4.9,7.3,0.4,16.5,1.1,24.8l0.7,8.5
	c-0.1,0.1-0.1,0.3-0.3,0.2c-0.3-0.9-0.4-2-0.5-2.9c-1.2-6.9-7.4-11.6-12.6-16.5c-1.2-1.1-2.1-2.5-2.7-3.9c0.4,3.4,1.4,6.9,3,10
	c4,7.9,11.8,14.4,13.2,23.4c0.7-8.7,6.1-15.1,6.1-24.3c0-7.5-3-13.6-7.5-19.1C-504.8-876.8-504.9-876.9-505-876.9L-505-876.9z
	 M-585.3-876.9v11.4c-3.6,0.1-7.1,0.9-10.3,2.4c-2.5,1.1-4.8,2.7-6.8,4.5l-8.3-8c2.9-2.7,6.1-4.9,9.7-6.6
	C-596.1-875.5-590.8-876.8-585.3-876.9L-585.3-876.9z M-583.8-876.9c4.7,0.1,9.3,1,13.6,2.7c1.2,0.5,2.3,1,3.4,1.6
	c0.1,0,0.1,0.1,0.2,0.1c1.8,1,3.6,2.1,5.3,3.4v0c0.1,0.5,0.6,0.6,0.6,0.6l0.3,0c0.2,0.2,0.4,0.3,0.6,0.5v0.5
	c0.5-0.1,1.2,0.4,1.3,0.8l-8.1,7.9c-2.3-2.1-5-3.8-7.8-5c-3-1.2-6.1-1.9-9.3-1.9L-583.8-876.9z M-620.4-873.9l7.5,7.3
	c-3,3.1-5.5,6.6-7.4,10.5v0c-2.3,4.8-3.5,10-3.6,15.3h-10.6c0.1-7.1,1.8-14,4.9-20.2C-627.3-865.8-624.2-870.1-620.4-873.9
	L-620.4-873.9z M-553.7-869c0.9,0.5,1.6,1.7,1.5,2c-0.1,0.3,0.8,0.2,0.8,0.2c0.1-1.2,1.2-0.8,1.3-0.4c0.1,0.4,0.3,1.2,0.3,1.2
	l0.3,0.6l0.5,0.5l0.7-0.1l0.2,0.4l0.9,0.1c0,0,0.7,0.8,0.8,1c0.1,0.2,1,0.1,1.3,0.2c0.3,0.1,0.7,0.3,0.7,0.6
	c0.1,0.3,0.5,0.8,0.5,0.8s0.8,0.2,0.9,0.5c0.1,0.3,0.4,0.8,0.4,0.8l0.6,0.5l0.1,0.6l0.7,0.1l0.2,0.8l1.2-0.1l0.7-0.5
	c0.2-0.1,0.4-0.2,0.5-0.3c2.7,5.9,4.1,12.3,4.2,18.8h-10.6c0-1.8-0.2-3.6-0.5-5.4c0.1-0.3,0.1-0.5,0-0.6c-0.2-0.2,0.2-1.1,0.2-1.1
	s0.3-0.5,0-1c-0.3-0.5,0.1-1.1,0.3-1.4l-0.5-0.2l-0.5-0.1l-0.4,0.1c-0.1-0.4-0.3-0.8-0.4-1.2l0.3,0.1v-0.4l-0.5-0.1
	c-0.1-0.3-0.2-0.5-0.3-0.8l-0.1-1.3l-0.5-0.3l0.1-0.5l-0.5-0.2l0.3-0.8l-0.5-0.9h-0.7c-0.3-0.6-0.6-1.2-1-1.8
	c0.2-0.1,0.5-0.2,0.8-0.2l-0.1-0.7l-0.6-0.4l-0.2-0.8c0,0-0.7,0.1-0.7,0.5c0,0.1,0,0.2-0.1,0.2c-0.5-0.7-0.9-1.4-1.4-2.1l0.1-0.1
	c0.3-0.4,0.1-0.7-0.3-0.8c-0.5-0.1-0.5-0.1-0.6-0.6c-0.1-0.5-0.7-0.7-0.7-0.7l-0.2-0.8l-0.5,0.3c-0.3-0.3-0.5-0.6-0.8-0.9l0.2-0.7
	c-0.2,0-0.4-0.2-0.5-0.3L-553.7-869z M-595.7-867.5l-0.3,0.3l0.4,0.3l0.2-0.3L-595.7-867.5z M-597.2-867.2l0.1,0.7h1
	c0.4,0-0.3-0.5-0.3-0.5S-597.2-866.9-597.2-867.2L-597.2-867.2z M-553.7-867.1l-0.4,0l0.1,0.6l0.4,0L-553.7-867.1z M-611.8-865.6
	l8.3,8c-1.7,1.8-3.2,3.8-4.3,6c-0.3,0-0.6,0-0.6,0.3c-0.2,0.5-1,0.4-1,0.4l-0.1,0.3l-0.7,0.1l-0.1,0.4l-0.8,0.1l2-0.1
	c0.5-0.1-0.2,1.1-0.5,1l-0.9,0.1l-0.3,0.3h-0.9l-0.4,0.5l-1.2-0.1c0,0-0.7,0.6-0.7,0.8c0.1,0.2-0.1,0.8-0.3,0.8s-0.6,0.6-0.5,0.8
	c0.1,0.2-0.4,0.8-0.4,0.8l-0.1,0.6l-0.4,0.1v1.7l-0.8,0.5v0.8l-0.4,0.4h-5.3c0.1-5,1.3-10,3.4-14.6
	C-617.2-859.2-614.8-862.6-611.8-865.6L-611.8-865.6z M-557.4-865.4c0.3,0.2,0.3,0.4,0.6,0.6c0.1,0.1,0.2,0.1,0.4,0.2
	c0.2,0.2,0.4,0.5,0.6,0.7l-0.2,0.2c0,0.7,0.4,0.5,0.7,0.5l0.3,0.4c0,0.4,0,1,0.7,1h0c0.8,1.1,1.6,2.2,2.3,3.4l0,0.1h0
	c0.1,0.2,0.2,0.4,0.3,0.6c-0.1,0.1-0.2,0.3-0.2,0.3l-1,0.1v1l-0.5,0.2l0.1,0.7l0.7-0.1c0,0,0,0.8,0.2,0.5c0.2-0.3,1.8,0.1,1.7,0.8
	c-0.1,0.3,1.6,1.2,1.4,2.2c0.1,0,0.2,0.1,0.3,0.1c0.3,0.9,0.6,1.8,0.8,2.7l-0.1,0.2c0,0,0.1,0.1,0.2,0.2c0.2,0.8,0.4,1.6,0.5,2.4
	c-0.1,0.7-0.2,1.4-0.6,1.6c-0.8,0.5,0.1,0.2,0.1,0.2l-0.1,1.4c0.2,0.6,0.5,0.3,0.7,0c0.1-0.1,0.2-0.3,0.3-0.4c0.1,1,0.2,2,0.2,2.9
	h-7.9l0.1-0.2l0.3-0.9l1.1-0.3l0.1-0.8l-0.6-0.1c0,0,0.7-1.2,1-1.2c0.3,0,2.5,0,2.7-0.1c0.2-0.1,0.6-1.2,0.6-1.4s0.5-0.3,0.7-0.3
	c0.2-0.1,0.7-0.6,0.8-0.8c0.1-0.3-0.3-1.9-0.6-1.6c-0.3,0.3-0.8,0.4-0.8,0.4l-0.2,0.7l-0.3,0.3c0,0,0.1,0.2,0,0.6
	c-0.1,0.5-0.7,0.7-0.7,0.7l-0.3,0.3c0,0-1.6,0.1-1.8,0c-0.6-0.3-0.2-1,0.2-1c0.4,0.1-0.1-1.1-0.1-1.1l0.5-0.1c0,0,0.1-1.2,0.3-1.2
	c0.2,0-0.1-0.4-0.3-0.6c-0.3-0.2-0.6-0.8-0.8-0.8c-0.3,0.1-1.3,0-1.3,0l-0.2,0.4l-0.7,0.1c0,0,0.1,0.5-0.1,0.6
	c-0.4,0.5-1.9,1.4-1.2-0.2l0.2-0.4v-0.6l-1.2-0.1c0,0-0.6-0.2-0.6-0.5c0-0.3-0.1-0.6-0.1-0.6l-1.4-1.5l-1.6-0.2l-0.1-0.3l-1-0.1
	c-0.1-0.1-0.3-0.1-0.4-0.2c-0.5-0.7-1-1.4-1.5-2.1c0,0,0-0.1,0-0.1c-0.1-0.2-0.8-1.2-1.2-1.3l-0.4-0.5L-557.4-865.4z M-551-864.6
	c-0.1,0-0.1,0.1-0.1,0.2c0,0.3,0.3,0.4,0.2,0.7c-0.1,0.3,0.1,0.6,0.4,0.6s0.5,0.1,0.7,0.3c0.3,0.1,0.5,0.3,0.7,0.6l0.7-0.2
	c0,0,0.1-0.6-0.2-0.4c-0.3,0.2-0.5-0.5-0.7-0.4c-0.3,0.1-0.4-0.3-0.7-0.6c-0.3-0.3-0.2-0.4-0.5-0.6
	C-550.8-864.6-550.9-864.6-551-864.6L-551-864.6z M-585.3-864v10.3c-1.4,0.1-2.7,0.3-4,0.8h0l-0.1-0.7l0.3-0.2l-0.5-0.2l-0.4,0.5
	l-0.1,0.6l-0.7,0.1v0.3h-0.5v0.4c-1,0.5-1.9,1.1-2.7,1.8l-7.5-7.3c1.9-1.8,4.1-3.2,6.5-4.3C-591.9-863.1-588.7-863.9-585.3-864
	L-585.3-864z M-583.8-864c3,0.1,6,0.7,8.7,1.8c2.7,1.1,5.1,2.6,7.3,4.6l-0.4,0.4c-0.2-0.2-0.9-0.3-0.9-0.6c0-0.3-0.7-0.6-0.6-0.2
	c0.1,0.4-0.5,0.6-0.6,0.5c-0.1-0.1-0.5,0.4-0.5,0.4c0,0.2-0.1,0.5,0.3,0.5c0.4,0.1,1.1-0.3,1.2,0.1c0,0.1,0,0.2,0.1,0.3l-2.6,2.5
	c-0.3,0-0.7,0-0.7,0c-0.2,0.6-1.1-0.1-0.9-0.5c0.3-0.4,0.3-0.6,0.3-0.6l-0.3-0.1l-0.4,0.7c-0.9,0-1.2,0.5-1,0.8
	c0.2,0.3-0.3-0.1-0.4,0.4c-0.1,0.5,0.1,0.5,0.5,0.6c0.4,0.2-0.2,0.2,0.1,0.5c0.2,0.2,0.5,0.2,0.7,0.2l-0.5,0.5c-0.5,0.1-1,0-1,0
	c0,0.1-0.1,0.2-0.2,0.3c-1-0.8-2.2-1.5-3.4-2c0.2-0.1,0.5-0.1,0.7-0.6c0.3-0.7,0.4-1.9,0.4-1.9s-1-0.1-1.1,0.3
	c-0.1,0.3-0.7,0.5-0.7,0.5s-0.5,0.2-0.3,0.5c0.2,0.3-0.4,0.4-0.4,0.4s0,0.2,0,0.3c-1-0.3-2.1-0.5-3.2-0.5L-583.8-864z M-549-861.8
	l-0.8,0.1c0.2,0.3,0.6,0.5,0.6,0.7s-0.1,0.5,0.3,0.5c0.4,0.1,0.7-0.1,0.8,0.3c0.1,0.4,0.1,0.7,0.1,1.1c-0.1,0.3,0.1,0.6,0.4,0.6
	c0.3,0,0.4,0.1,0.4,0.3c0,0.2,0.4-0.7,0.4-0.7c-0.2-0.2-0.4-0.5-0.6-0.8c0,0-0.3-0.9-0.3-1c0-0.1-0.5-0.3-0.7-0.3
	C-548.7-861.2-549-861.8-549-861.8L-549-861.8z M-555.3-861.5l-0.7,0.1l0,0.4l0.7-0.1L-555.3-861.5z M-554.8-861.1v0.3h0.4v-0.3
	L-554.8-861.1z M-555.4-860.4c0,0-0.4,0.5-1.2,0.3c0,0-0.1,1.2-0.5,1.5h-0.9c0,0,0.2,0.3,0.4,0.5c0.2,0.2,0.7,0.6,0.2,0.8
	c-0.5,0.3,0.1,0.2,0.1,0.2s-0.1,1.4-0.7,1.2c-0.6-0.2-0.8,0.7-0.8,1c0,0.3,2.3,0.4,2,0c-0.2-0.2,0.3-0.6,0.3-0.6s1.6,0.1,1.9,0.1
	c0.3,0,0.6-0.1,0.4-0.4s-0.8-0.2-0.8-0.2s-0.8,0.2-1.5-0.2c-0.7-0.4,0.1-0.5,0.3-0.5s0.7-0.5,0.5-0.8c-0.3-0.3,0-0.9,0-0.6
	s0.7,0.4,0.9,0.2c0.1-0.2,0-0.8-0.3-1c-0.3-0.2,0.6-0.3,0.3-0.6C-555.1-859.9-555.3-860.2-555.4-860.4L-555.4-860.4z M-554.1-858.5
	v0.4h0.4v-0.5L-554.1-858.5z M-553.2-858.3l-0.2,0.4l0.3,0.2l0.2-0.4L-553.2-858.3z M-546.8-857.8c-0.2,0,0.1,0.7,0,0.9
	c-0.2,0.1-0.3,0.4-0.5,0.6c-0.2,0.2,0.4,0.4,0.4,0.6c0,0.2,0.1,1.2,0.1,1.2s0.5,0.2,0.5,0.5c0.1,0.3,0,0.8,0.2,0.8s0.6,0.3,0.5,0.6
	c-0.1,0.3-0.1,0.8-0.1,0.8l0.3,0.6l0.5,0.3c0,0,0.2-1.5-0.1-1.6c-0.3-0.1-0.2-1-0.2-1s0.3-1.2-0.2-1.2c-0.5,0-0.1-0.6-0.5-0.8
	c-0.3-0.2-0.1-1.1-0.3-1.4C-546.4-857.2-546.4-857.5-546.8-857.8C-546.8-857.8-546.8-857.8-546.8-857.8L-546.8-857.8z M-562.7-856.5
	l-0.7,0.1l0,0.4l0.7-0.1L-562.7-856.5z M-572.6-856.5c-0.1,0-0.3,0-0.4,0.1l-1,0.1l-0.1,0.4l0.7,0.1c0,0,0.3,0.3,0.3,0.5
	c0,0.2,0.5,0.4,0.7,0.4c0.3,0,1-0.5,1-0.5s0.3-0.9,0.1-0.8c-0.3,0.1-0.8,0.4-0.8,0.1C-572.2-856.4-572.4-856.5-572.6-856.5
	L-572.6-856.5z M-602.5-856.5l6.4,6.2l-0.6,0c-0.3,0.6-0.9-0.1-0.9-0.1c-0.1-0.4-1,0-1,0c0,0.7-1.2-0.3-1.2-0.3l-2.3-1.6
	c-1.3-1.2-3.3,0.3-3.3,0.6c0,0.5-0.4,0.5-0.8,0.4C-605.3-853.1-604-854.9-602.5-856.5L-602.5-856.5z M-576.8-856.3l-0.4,0.1l0.1,0.6
	l0.4-0.1L-576.8-856.3z M-574.6-856.2l-1.4,0.1l0,0.4l1.4-0.1L-574.6-856.2z M-586.9-856.1v0.4h0.5v-0.4L-586.9-856.1z M-583.6-856
	l-0.1,0.4l0.5,0.1l0.1-0.4L-583.6-856z M-582.7-855.8l-0.1,0.4l0.5,0.1l0.1-0.4L-582.7-855.8z M-588-855.7l-0.1,0.4l0.5,0.1l0.1-0.4
	L-588-855.7z M-577.3-855.7l-0.2,0.1l0.1,0.4l0.2-0.1L-577.3-855.7z M-561.4-855.5l-0.2,0.5l0.4,0.2l0.2-0.5L-561.4-855.5z
	 M-566.3-855.4c0.2,0.1,0.5,0.1,0.7,0.2c0.3,0.4,0.6,0.7,0.9,1.1l-0.8-0.1l-0.5-0.1l-1-0.1c-1,0.6-1.2,1.4-1.2,1.4
	c-0.4,0.8-1.4-0.1-1.4-0.6l1.7-1.7c0.1,0,0.2,0,0.3,0C-567.1-855.3-566.3-855.4-566.3-855.4L-566.3-855.4z M-581.8-855.3v0.4h0.5
	v-0.4H-581.8z M-588.4-855.2l-0.1,0.4l0.5,0.1l0.1-0.4L-588.4-855.2z M-588.6-854.7l-0.4,0.1l0.1,0.4l0.4-0.1L-588.6-854.7z
	 M-580.9-854.7l-0.4,0l0,0.5l0.4,0L-580.9-854.7z M-560.3-854.5c-0.2,0-0.5,0-0.7,0.1c-0.3,0.1-0.3,0.3,0,0.6l0.8-0.1
	c0,0,0.6-0.3,0.5-0.5C-559.8-854.5-560-854.5-560.3-854.5L-560.3-854.5z M-564.7-854.1c0.2,0.3,0.5,0.7,0.7,1
	c-0.1,0.2-0.1,0.4-0.1,0.6c0.2,1,0.5,1.4-0.1,1.4c-0.7,0-0.8-0.5-0.8-0.5s-0.5-0.2-0.5,0.1c0,0.3-0.2,0.8,0,1
	c0.2,0.3-0.3,0.6-0.5,0.5c-0.2-0.2-0.7-0.8-0.6-1c0.1-0.2-0.9-1.4,0.1-1.6c1-0.2-0.1-0.8,0.3-0.9l0.5-0.3h0.5L-564.7-854.1z
	 M-673.7-853.9c-1,2.1-1.5,4.6-2,6.9c-1.2,6,0,12.4,1.7,18c2.1,6.9,9.1,11.9,12.6,18.3l0.5,0.4c-0.5-3.5-0.8-7.2,0.2-10.5
	c1.5-5.3,3.4-10.4,4.5-15.9c0.8-4.2,1.7-9,1.2-13.1c-0.6,2.2-1.2,4.4-2.4,6.3c-4.8,7.2-9.6,15.6-6.3,24.6c-0.1,0.1-0.2,0.2-0.3,0.2
	c-1.3-3-1.6-6.4-2.5-9.6C-668.9-836.9-675.6-844-673.7-853.9L-673.7-853.9z M-495.5-853.9c2,9.9-4.8,17-7.1,25.5
	c-0.9,3.2-1.2,6.6-2.5,9.6c-0.1,0.1-0.2-0.1-0.3-0.2c3.3-9.1-1.5-17.5-6.3-24.6c-1.2-1.9-1.9-4.1-2.4-6.3c-0.5,4.1,0.4,8.9,1.2,13.1
	c1,5.5,2.9,10.6,4.5,15.9c1,3.3,0.7,7,0.2,10.5l0.5-0.4c3.5-6.3,10.5-11.3,12.6-18.3c1.7-5.5,2.8-11.9,1.7-18
	C-494-849.3-494.4-851.7-495.5-853.9L-495.5-853.9z M-584.7-852.2l0.1,1.5l-0.7-0.2h-0.5l-0.2-0.4l-0.4-0.1v1.4l0.4,0.3l0.3,0.3
	l0.7,0.1l0.1,0.8l1.6,0.1l0.2,0.3l1,0.1l1.9,1.9l-0.1,0.6l-0.3,0.2c0.1,0.5-0.9,0.2-0.9,0.2v0.4l0.5,0.1l0.5,0.3l0.7-1.1
	c0.7-0.5,1,0.2,1.1,0.6c0.1,0.4-0.3,0.3-0.3,0.3v0.9l0.4,0.1c0.7,0.8-0.3,1.2-0.3,1.2l-0.2,0.6c-0.2,0.6-0.9,0.5-0.9,0.5l-0.3,0.4
	l-0.8,0.2l1.5,0.2c0.2-0.5,0.5-0.6,0.7-0.4c0.2,0.3,0.2,0.7,0.2,0.7l0.4,0.1l-0.1,0.7l0.4,0.1v2.1l0.5,0.5c0.8-0.3,0.8,0.2,0.4,0.5
	c-0.4,0.3-0.1,1.4-0.1,1.4l-0.3,0.3v0.5l-0.4,0.3v0.7c-0.7-0.3-1.4-0.2-1.6,0c-0.6-0.4-1.8-0.3-1.8,0.1c0.4,0.5-0.5,0.6-0.5,0.6
	l-0.5,0.5c0.3,0.6-0.3,0.7-0.3,0.7v1.2l-0.8,0.7l0,1.1c-3.4,0.3-6.8-0.7-9.4-3c0,0,0.1-0.1,0.1-0.1c0.3-0.5,0.8-0.6,0.8-0.6l0.2-0.5
	l1.8,0.1c0.1-0.7,1-0.5,1-0.1s0.7,0.1,0.7,0.1l0.5-0.7h0.7l0.1-0.8l0.3-0.2v-1.2c1-0.3,0.9-1.3,0.9-1.3l0.3-0.3l-0.1-0.5
	c-0.5-0.2-0.3-0.6,0.1-0.5c0.3,0.1-0.5-0.6-0.5-0.6c-0.4,0.3-0.7-0.4-0.7-0.4h-1v-0.9l-0.1-0.8l-1-0.5l-0.7,0.6l-0.1,0.9v0.6
	l-0.7,0.1l-0.1,1.7l-0.5,0.2l0.1,0.7l-0.7,0.2l-0.7,0.2l-0.1,0.8l-0.5,0.3l-0.3,0.8l-0.3,1.8c-0.9-0.9-1.7-2-2.2-3.1
	c0.1-0.3,0.1-0.6,0.1-0.9c-0.6-0.3-0.3-1.2,0.4-0.4c0.7,0.8-0.4-1.5-0.4-1.5l-0.5-0.5l-0.7-0.1c-0.1-0.6-0.2-1.3-0.2-1.9
	c0-0.3,0-0.5,0-0.8c0.2-0.2,0.4-0.1,0.4-0.1l0.4,0.3l0.6,0.5l0.1,0.4l-0.4,0.2l-0.1,0.5l0.2,0.7h0.5c0.2-1,1.6-1,2-0.4l0.4-0.9
	c-0.9-0.4,0-1.2,0.2-0.8c0.3,0.3,0.9-0.8,0.9-0.8s0.5,0.6,0-0.2c-0.5-0.8,0.3-1.2,0.3-1.2c-0.1-0.8,0.9-0.6,0.9-0.6l0.1-1l-0.9-0.1
	c-0.2,0.9-1,0.1-0.6-0.1c0.4-0.2,0.8-0.6,0.8-0.6v-0.6l0.4-0.1l0.1-0.6h1l0.8-0.4l0.2-0.3l0.9-0.1l1.3-1.2l-0.1-0.5
	c-0.8,0,0-0.6,0-0.6l0.1-1h-0.7l-0.1-1.4C-586.5-852.1-585.6-852.2-584.7-852.2L-584.7-852.2z M-544.9-848.5l-0.1,0.5l0.4,0l0.1-0.5
	L-544.9-848.5z M-545.2-846.7l-0.2,0.4l0.3,0.2l0.2-0.4L-545.2-846.7z M-612.9-844.2c0.6,0,1.1,0.3,1.1,0.3l0.9-0.1
	c0.2,0.1,0.4,0.3,0.5,0.5c-0.1,0.6-0.1,1.2-0.2,1.8c-0.1,0.2-0.2,0.3-0.2,0.3c-0.1,0.1-0.1,0.3-0.1,0.5h-2.5l0-0.1l-0.7-0.1
	c-0.8-0.5-0.4-2.1-0.4-2.1C-614-843.9-613.4-844.1-612.9-844.2L-612.9-844.2z M-590.3-843l-0.1,0.3h-0.3l-0.1,0.5h0.4l0.1,0.4
	l-0.3,0.3l-0.1,0.3l-0.5,0.1l-1.2,1.1l-0.1,0.5l-0.3,0.5l-0.4,1l-1.4,0.1l-0.3,1.2l0.2,1l1.2,0.5l0.1-0.6l0.4-0.2l0.1-0.6l0.3-0.5
	l0.4-0.5l0.1-0.5l0.7-0.4l0.8-0.1l0.3-0.4l0.1-0.8l0-0.6l0.3-0.4l0.8-0.3v-1.2h-0.4l-0.1-0.5L-590.3-843z M-549.3-842.6l-0.1,0.4
	l0.7,0.1l0.1-0.4L-549.3-842.6z M-550.9-842l-0.2,0.1l-0.5,0.3l-0.4-0.3l-0.2,0.3l0.5,0.3l0.1,0.1l0.1-0.1l0.4-0.2l0,0.1l0.4-0.1
	l-0.1-0.3L-550.9-842z M-555.9-839.3h9.2c-0.1,4.9-1.2,9.7-3.2,14.1c-1.8,3.9-4.2,7.4-7.2,10.5c-0.1-1.3-0.4-2.7-0.4-2.7l-0.5-0.3
	l0.1-1.5h-0.7l-1.2,1.5l-0.1,0.4l-0.7-0.7l0.3-0.3l-0.1-0.8l0.5-0.4v-0.6l0.4-0.1l0.1-1.4l0.3-0.1v-3.1l-1-0.9
	c-0.1,0.3-1.1,0.3-1.1,0.3s-0.3,0.5-0.5,0.5s0.3,0.6,0.1,1c-0.1,0.4-0.7,0.4-0.7,0.4l-1,0.3l-0.3,0.3h-1l-0.1-0.6l0.3-0.4l0.8-0.2
	l0.7-0.3l0.3-0.6c0.1-0.6,0.9-0.6,0.9-0.6s1.5-1.2,1.6-1.8c0.1-0.6,0.6-2.2,1.5-2.2h1.7c0.7-0.3,0.5-1.1,0.5-1.1l0.8-0.1l0.1,0.5
	c0,0,1.2,0.1,1.3-0.1c0.1-0.2,0.4-0.6,0.7-0.5c0.3,0.2,1.4-0.5,1.4-0.5c0.1-0.5,1.7-0.3,1.7-0.3l0.2-0.6c0,0-1.1-1.5-1.3-1.5
	c-0.2,0-1.2-0.9-1.4-0.6c-1-0.3-1-1.7-1-1.7l-0.4-0.9c0-0.5-1-1.6-1.2-1.5C-555.9-838.8-556-839.1-555.9-839.3L-555.9-839.3z
	 M-545.2-839.3h10.6c-0.1,6.9-1.7,13.6-4.7,19.8c-2.4,4.9-5.5,9.4-9.4,13.2l-0.3-0.3l-0.1-1.6l-0.3-0.3l-0.1-1.6
	c0.3-0.8-1.2-2.1-1.4-1.8c-0.1,0.3-1,0.1-1,0.3c0,0.3-0.5,1.5-0.3,2c0,0,0,0,0,0.1l-4.1-4c3.1-3.2,5.7-6.9,7.6-10.9
	C-546.5-829.2-545.3-834.2-545.2-839.3L-545.2-839.3z M-533.1-839.3h11.7c-0.1,9-2.3,17.9-6.3,26c-3,6-6.9,11.4-11.7,16.2l-8.2-8
	c4-4,7.2-8.5,9.7-13.6h0C-534.8-825.2-533.2-832.2-533.1-839.3L-533.1-839.3z M-622.4-839.3h4.6l0,0.4l-1,1l0.1,1l-0.6,0.2l-0.1,0.5
	l-0.3,1.4l0.7,0.1c0.3-0.1,0.3,0.8,0,1c-0.3,0.1-1,0.4-0.6,0.6c0.4,0.3-1,0.2-1-0.2c0-0.4-0.8-0.7-1-0.6c-0.1,0.1-0.3-0.1-0.4-0.3
	C-622.2-836-622.3-837.7-622.4-839.3L-622.4-839.3z M-615.6-839.3h0.3c0.2,0,0.3,0.1,0.3,0.1l0.9,0.1l0.1-0.2h3.1l0.3,1.7l-0.9,0.7
	c-0.7,0.4-0.7,1.3,0.1,1.5c0.5,0.1,0.3,1.3-0.5,0.5c-1.2,0,0.7,1,0.1,0.8c1.2,0.6,0.9-0.5,0.9-0.5l0.6-0.5c0.3,1.3,0.6,2.5,1,3.7
	c1.2,3.3,3.1,6.3,5.6,8.9l-8.3,8c-0.5-0.5-1.1-1.1-1.5-1.7c0.1-0.4,0.4-0.8,0.4-0.8c0.9-0.5-0.2-1.4-0.2-1.4
	c0.1-0.8-0.5-1.7-0.5-1.7c-1.2-0.8-0.9-2.3-0.9-2.3v-1c-1-0.9,0.4-1,0.4-1c0.5-0.8-0.3-1.4-0.3-1.4l-0.1-0.8l-1-0.1l-0.1-3l-2.3-3.3
	c-0.5-0.1-0.1-0.9-0.1-0.9c0.6-0.3-0.1-1.1-0.1-1.1l-0.1-1.4l1.4-0.1l0.3-0.5h0.7l-0.1-1.7C-616-839.1-615.8-839.3-615.6-839.3
	L-615.6-839.3z M-599.3-839.3h0.7c0,0.5,0.1,0.9,0.2,1.3l-0.4,0.1l-0.1-0.3l-0.2,0.7h-1.2l-0.1-0.8l0.7-0.2l0.3-0.4L-599.3-839.3z
	 M-579.9-838.5c-0.1,0-0.2,0.1-0.3,0.3v0.8c0,0,0.9,1.4,1.2,1.6c0.3,0.2,0.8-0.2,0.5-0.5c-1-0.6-0.9-1.5-1.2-2.1
	C-579.7-838.3-579.8-838.4-579.9-838.5L-579.9-838.5z M-614.1-837.9l0.1,0.5h0.3c0.5,0.9,0.1,3.1,0.1,3.1s-0.8,0.1-0.9-0.3
	c-0.1-0.4-0.5,0.8-0.2,1c0.3,0.2,1.2,0,1.2,0.7c0.1,0.7,0.6-0.5,0.6-0.5v-4.4L-614.1-837.9z M-582.7-836.6l-1.2,0.8
	c0.6,0.1,0.7,0.7,0.7,0.9c0.1,0.6,0.1-0.9,0.4-0.8C-582.5-835.6-582.7-836.6-582.7-836.6L-582.7-836.6z M-608.8-836.1
	c0.6,0.2,1.2,1.1,1.2,1.2c0,0.2,2.6,0.1,2.6,0.1c0.7,0.5,1,1.6,1,1.6c0.7-0.9,2.2-0.1,1.1,0.5c1,0.6,1,1.2,1,1.2
	c0.8-0.3,0.9,0.4,0.9,0.6c0,0.2,0.3-1,0.3-1c-1-0.7,1.3-1,0.7,0.3l-0.4,0.6l0.7,0.5l0.1,1.5c1.4-0.1,1-1.9,1-1.9l0.6-0.1
	c0-0.6,0.5-0.2,0.5-0.2c-0.3-1.5,0.3-2.2,0.7-2.4c0.5,0.9,1.2,1.8,1.9,2.6l-7.5,7.3c-2.3-2.3-4-5.1-5.2-8.2
	C-608.2-833.3-608.6-834.7-608.8-836.1L-608.8-836.1z M-549.6-834.6c-0.5,0-1.2,0.4-1,0.6c0.4,0.5,1,0.3,1.3,0.3
	c0.3,0.1,0.5,0.2,0.3-0.6C-549.2-834.5-549.4-834.5-549.6-834.6L-549.6-834.6z M-611.7-833.7c-0.2,0-0.3,0.1-0.3,0.3c0,0,0,0,0,0
	c0,0.2,0.1,0.3,0.3,0.3c0.2,0,0.3-0.1,0.3-0.3C-611.5-833.5-611.6-833.7-611.7-833.7C-611.7-833.7-611.7-833.7-611.7-833.7z
	 M-612.5-832.8l-1,0.6l-0.7-0.4v1.5l1,1.3l0.4-0.9l0.1-0.6l-0.5-0.2l0.1-1l0.4-0.1L-612.5-832.8z M-588.3-831.2l-0.6,0.1l0.1,0.9
	l0.4,0.3l0.7,0.2c0,0,1-0.3,1-1l-1.5-0.1L-588.3-831.2z M-580.1-830.7c0.6,0,0.4,1.3,0.4,1.7c-0.4,0.2-0.8,0.3-1.2,0.4v-1.4l0.7-0.7
	C-580.2-830.7-580.1-830.7-580.1-830.7L-580.1-830.7z M-593.9-829.9c2.3,2,5.1,3.2,8.2,3.4v0c0,0-0.2,0.6,0,0.7c0,0,0,0,0.1,0
	c0.2,0.1,0.1,0.1,0.3,0.3l-0.1,0.3l0,0c-0.2-0.2-0.4,0.3-0.2,0.4c0.2,0.1-0.3,0-0.3,0.2c0,0.2-0.2,0.3,0,0.4
	c0.1,0.1-0.1,0.2-0.2,0.3c-0.2,0.1,0.8,0.2,0.8,0.2s-0.2-0.4,0-0.4h0.1v0.6c-0.1,0-0.2,0-0.3-0.1v0.5l-0.5,0.1l0.5,0.5l0.3,0v1.1
	l0,0.1c0,0.8-2.2,0.3-2.3,0.1l-0.1,1.2l-0.4,0.1l0.1,0.8l-0.1,1.1l0.7-0.1v0.5l1.8,0.1l0.3-0.4v1.2l0,0.1l-1.2,0.1l-0.5,0.3
	l-0.2-0.4h-0.5l-0.3,0.4c-1.5-0.2-3.1-0.6-4.5-1.1c-3.3-1.1-6.2-2.8-8.8-5.2L-593.9-829.9z M-656.1-829.3c0.9,5.6-1.4,10.6-1.9,15.9
	c-0.4,4.2,0.3,8.5,2.1,12.3c0.5,1.1,1.5,2.1,1.7,3.2c-1.7-1.5-2.9-3.4-4.1-5.2c-5.5-8.6-16.9-14.2-17.7-24.6
	c-0.4,4.6,0,9.6,1.6,13.7c2.2,5.7,6.5,10.1,11.4,13.9c5.1,3.9,11.1,6.9,15.8,10.3c-0.9-2.2-2.4-4.3-3-6.7
	C-653-807.1-651.4-819.4-656.1-829.3L-656.1-829.3z M-513-829.3c-4.7,9.9-3.2,22.2-5.9,32.9c-0.6,2.4-2.1,4.4-3,6.7
	c4.6-3.4,10.7-6.5,15.7-10.3c4.9-3.8,9.2-8.2,11.4-13.9c1.6-4.1,2-9.1,1.6-13.7c-0.8,10.5-12.2,16.1-17.7,24.6
	c-1.2,1.8-2.4,3.7-4.1,5.2c0.3-1.1,1.2-2.1,1.7-3.2c1.8-3.8,2.5-8.1,2.1-12.3C-511.6-818.7-513.9-823.7-513-829.3L-513-829.3z
	 M-569.9-829.1c0.2,0,0.3,0.1,0.2,0.3c-0.2,0.6,0,0.8,0,0.8c0.9-0.8,1.6,0.1,1.5,0.3c-0.1,0.2,0.5,0.4,0.8,0.2
	c0.3-0.2,0.7,0.6,0.6,1c-0.1,0.4-1.3,0.3-1.4-0.1c-0.1-0.4-0.3-0.3-0.4-0.1c-0.1,0.2-0.5,0.3-0.9,0.2l-0.3-0.3c0-0.1,0.1-0.1,0-0.2
	c-0.1-0.1-0.2-0.1-0.3-0.1l-0.6-0.6c0-0.4,0.1-0.9,0.1-1.1C-570.6-828.9-570.2-829.1-569.9-829.1L-569.9-829.1z M-612.4-828.9
	l-0.5,0.1l-0.1,0.5l0.5,0.1V-828.9z M-530.8-828.3c-0.3,0-0.5,0.1-0.8,0.3l0.2,0.3c0.3-0.2,0.6-0.2,0.7-0.2c0,0,0,0,0,0l0.4-0.1
	c0-0.1-0.1-0.2-0.2-0.3C-530.6-828.3-530.7-828.3-530.8-828.3L-530.8-828.3z M-612.2-827.6c-0.2,0-0.3,0.1-0.3,0.3
	c0,0.2,0.1,0.3,0.3,0.3c0.2,0,0.3-0.1,0.3-0.3C-611.9-827.5-612.1-827.6-612.2-827.6z M-579.6-827.3c0,0.1,0,0.2,0.1,0.3l0.3,0.1
	l-0.6,0.5l-0.5,0.6l-0.7-0.2l-0.8-0.1l-0.3-0.5l-0.5-0.1l-0.1,0.9l-0.3,0.4l-0.8,0.8c0.8,0,0.3,0.4-0.1,0.6v-2.6
	c0.8,0,1.7-0.2,2.5-0.4l0.1,0.1h0.6l0-0.3C-580.2-827.1-579.9-827.2-579.6-827.3L-579.6-827.3z M-611.7-826.3
	c-0.2,0-0.3,0.1-0.3,0.3c0,0,0,0,0,0c0,0.2,0.1,0.3,0.3,0.3c0.2,0,0.3-0.1,0.3-0.3c0,0,0,0,0,0
	C-611.5-826.2-611.6-826.3-611.7-826.3C-611.8-826.3-611.8-826.3-611.7-826.3L-611.7-826.3z M-587.1-826.1c-0.3,0-0.6,1-0.7,1.2
	c0,0,0.2,0.5,0.4,0.5c0.3-0.1,0.5-0.2,0.7-0.2c0.2,0,0.3-0.4,0.4-0.8c0.1-0.4-0.1-0.6-0.1-0.6s-0.2,0.4-0.6,0
	C-587-826.1-587-826.1-587.1-826.1L-587.1-826.1z M-613-825.6l-0.6,0.1v0.5l0.6-0.1V-825.6z M-573.7-825.6h0.5l0.1,0.3l2,0.2l0.1,0
	c0.8,0.5,0.4,1,0.1,1.2c-0.3,0.1-0.7,0.1-0.7,0.1l-0.1,0.3l-1.7,0.1l-0.1,0.6c-0.8-0.1-1.2,0.8-1,1.2c0.2,0.4,0,0.8,0,0.8l0.7,0.3
	l0.9-0.3c0.1-0.7,0.7-0.8,1.2-1.2c0.5-0.4,1.4,0.7,1.1,1.2c0,0.1-0.1,0.1-0.1,0.2c-1,0.7-2,1.3-3.1,1.8c-1.7,0.8-3.6,1.4-5.5,1.8
	l-0.1,0l-0.7-0.2l-0.1-1c-0.1-0.6-1.4-0.6-1.3-0.2c0.1,0.4-2.3,0.2-2.3,0.2v-1.8l0.7-0.7l1.5-0.3c0.1-0.6,0.8,0.1,0.8,0.1
	c0.7-0.1,0.8,0.4,0.8,0.4l0.9,0.1c0.7,0.2,0.3,0.3,0.3,0.5c0.1,0.4,0.4,0.3,0.4,0.3l0.1-0.8l0.4,0.1l-0.4-0.5l-0.7-0.3l-0.8-0.3
	c-0.5-0.7,0.1-0.6,0.7-0.5h0.8c0,0,1,1.3,1,1.6c0,0.3,0.5,0.4,0.5,0.4l0.6-0.1l0.2,0.5h0.6l0.2,0.4h1.2l0.1-0.6l-1.1-0.2l-0.1-0.6
	l-0.8-0.2c-0.3-1.1,0.2-1.4,0.5-0.9l0.4,0.1l-0.1-1l0.5-0.1l-0.1-1.4l-0.4-0.1v-0.4l1.6,0.1C-573.9-825.2-573.7-825.6-573.7-825.6
	L-573.7-825.6z M-526.4-822.6l-0.4,0.2c0,0.1,0.1,0.2,0.1,0.3c0,0.1,0,0.2,0.1,0.3c0.1,0.1,0.2,0.1,0.3,0l-0.1-0.4
	c0,0,0.1,0,0.1,0.1c0,0,0-0.1,0-0.1C-526.3-822.4-526.3-822.5-526.4-822.6L-526.4-822.6z M-526.8-821.9l-0.4,0.1
	c0.1,0.4,0.2,0.8,0.2,0.8l0.4-0.1C-526.5-821.2-526.7-821.5-526.8-821.9L-526.8-821.9z M-557.4-821.5v1.2h0.5v-1.2L-557.4-821.5z
	 M-571.5-821.2l-0.5,0.3l0.2,0.3l0.5-0.3L-571.5-821.2z M-529-820.3c0,0.3,0,0.7,0.4,0.7l0.1-0.4h0c0,0-0.1-0.2,0-0.3L-529-820.3z
	 M-529.2-819.6c-0.1,0-0.3,0.1-0.4,0.2c-0.4,0.2-0.2,1.2,0,1c0.2-0.2,0.5,0,0.6-0.7C-529-819.5-529.1-819.6-529.2-819.6
	L-529.2-819.6z M-569.8-819.1l1.5,0.8c0.2,0.3,1,0.2,1,0.2l0.3,0.3c0,0,0.5-0.1,0.8,0.3c0.3,0.4,2,0.1,2,0.1l0.5,0.4l0.7,0.3l1.2,0
	l0.8,0.7c-1.2,0.5-3.6,0.3-3.7,0.2c-0.2-0.2-1.6-0.8-1.6-0.8s-1-0.8-1.2-0.6c-0.2,0.3-1.1-0.3-1.1-0.1c0,0.2-0.8-0.5-0.8-0.5
	l-1.3-0.5l1-0.2l-0.2-0.6C-569.9-819.1-569.8-819.1-569.8-819.1L-569.8-819.1z M-640.7-815.3v0.6h0.5v0.8h0.4l-0.1-1l-0.5-0.2v-0.3
	L-640.7-815.3z M-545.3-815l-0.1,0.6l0.6,0l0-0.5L-545.3-815z M-545.9-813.6l-0.1,0.4c0,0,0.1,0,0.1,0.1l0.1,0.3
	c0,0-0.1,0.1-0.1,0.1l0.3,0.3c0.2-0.2,0.3-0.4,0.2-0.7C-545.4-813.5-545.8-813.6-545.9-813.6L-545.9-813.6z M-557.3-812.5l2.9,2.8
	c-0.1,0.5-0.6,0.7-0.8,0.6c-0.3-0.2,0.3,0.3,0.5,0.6c0.1,0.2,0.5,0.2,0.7,0c0.1-0.2,0.1-0.5,0.1-0.8l1.3,1.3
	c-0.2,0.3-0.3,0.7-0.3,0.9l0.6,0.3l0.1,1.1c0.4,0.4,1.4,0.4,2.2,0.3l0.3,0.3c-2.4,2.3-5.1,4.3-7.9,6.1v-0.6c1.2-0.8,1.2-2.3,0.1-2.5
	c-0.8-0.1-0.5-1,0.3-1.1l0.5-0.2v-0.6l1.5-1.3v-1l-3.3-2.6c-0.7-0.2-0.7-1-0.5-1.8C-558.5-811.4-557.9-811.9-557.3-812.5
	L-557.3-812.5z M-637.5-812.3l0.5,1.2l0.3,0.6l0.5,0.7l0.7,0.6l0.3-0.5l-0.5-1l-0.5-0.3l-0.3-0.9L-637.5-812.3z M-650.2-811.4
	c4,7.7,2.3,17.7,7.4,24.9c1.6,2.3,3.9,4.4,5.9,6.3l-0.1,0.1c-1.9-0.9-3.6-2.1-5.3-3.5c-9-7.3-22.5-8.2-27.9-20.1
	c1.5,8.7,8.6,16.4,16.3,21.3c7.3,4.7,16.7,4.1,24.8,6.7c-7.5-5.9-8.6-14.7-12-22.4C-643.3-802.9-646.6-807.2-650.2-811.4
	L-650.2-811.4z M-518.9-811.4c-3.6,4.2-7,8.5-9.1,13.3c-3.3,7.7-4.5,16.6-12,22.4c8.1-2.6,17.5-2.1,24.8-6.7
	c7.7-4.9,14.8-12.6,16.3-21.3c-5.4,11.9-18.9,12.8-27.9,20.1c-1.7,1.4-3.4,2.7-5.3,3.5l-0.1-0.1c2.1-1.8,4.3-4,5.9-6.3
	C-521.1-793.8-522.9-803.7-518.9-811.4L-518.9-811.4z M-621.3-808.6c0.6,0,1.3,0.6,1.4,0.9c0.1,0.2,0.3,0.4,0.4,0.5l-1,0.9
	c-0.6-0.6-1.2-1.2-1.8-1.9h0.3C-621.8-808.5-621.6-808.6-621.3-808.6L-621.3-808.6z M-583-805.1c0.1,0,0.2,0,0.3,0
	c0.4,0,0.8,0.1,1.1,0.3c0.7,0.5,1.7,0.2,1.7,0.2l0.7,0.9c-1.5,0.2-3.1,0.3-4.6,0.4v-1.5C-583.5-805-583.3-805.1-583-805.1
	L-583-805.1z M-548.7-804.1l8.2,8c-4.6,4.4-9.9,8.1-15.7,10.9c-8.6,4.2-18.1,6.5-27.7,6.6V-790c4.7-0.1,9.4-0.8,13.9-2.1l1.1,0.3
	l0.3,1l0.5-0.1l0.4-0.3l1.6-0.1l0.8-0.7l0.8-0.1l6.2-5.1C-554.8-799.1-551.6-801.4-548.7-804.1L-548.7-804.1z M-578.4-802.3l0.1,0.3
	l1.1,0.3l0.8,0.2l0.3,1.1l0.6,0.1l0.2,0.7c0.7,0.5-0.2,1.6-0.2,1.6v1.4l0.5,0.3l-0.1,0.5l0.9,0.8l1,0.1l1.6,1.7
	c-4,1-8.1,1.6-12.2,1.7v-10.3C-582-801.8-580.2-802-578.4-802.3L-578.4-802.3z M-594.2-801.2l-0.4,0.3l-0.2,0.2l0.2,0.2l0.5,0.3
	l0.2-0.3l-0.3-0.2l0.2-0.2L-594.2-801.2z M-589.5-796.6l-0.2,0.4l0.4,0.2l-0.1,0.1l0.3,0.3l0.3-0.3l0.2-0.2l-0.2-0.1L-589.5-796.6z
	 M-622.6-793.3l0.5,0.8l0.1,0.6l0.7,0.2l0.3,0.4l0.5-0.3l-0.3-0.8l-0.9-0.7L-622.6-793.3z M-637.3-792.6c4.9,6.4,6.3,15.7,15.3,19
	c1.6,0.6,3.4,0.7,4.8,1.5c-1.7,0.3-3.2-0.3-4.8-0.6c-11.5-2.4-25.6,0.7-34.3-8.9c3.3,6.3,10,11.2,16.5,13.3
	c10.1,3.2,20.5-0.4,30-2.6c1.4-0.3,3-0.2,4.3-0.7c-5.3-1-10.3-2.6-14.4-6.2C-625.8-783-631-788.6-637.3-792.6L-637.3-792.6z
	 M-531.8-792.6c-6.3,4-11.4,9.6-17.3,14.8c-4.1,3.6-9.1,5.2-14.4,6.2c1.3,0.5,2.9,0.3,4.3,0.7c9.4,2.3,19.9,5.9,30,2.6
	c6.5-2.1,13.2-7,16.5-13.3c-8.6,9.6-22.7,6.5-34.3,8.9c-1.6,0.3-3.1,0.9-4.8,0.6c1.4-0.8,3.2-0.9,4.8-1.5
	C-538.1-776.9-536.7-786.2-531.8-792.6L-531.8-792.6z M-594.1-771.9c-8.9,0-16.8,4.2-24.5,7.3c-7,2.8-16.4,2.3-22.6-1.9
	c3.1,3.8,7.2,6.1,11.5,7.6c7.9,3.1,17.1,0.7,23.9-3.5c4.8-3,9-7.3,14.8-7.3c1,0,2,0.1,3.1,0.3c1.1-0.4,2.3-0.8,3.4-1.2
	C-587.6-771.4-590.8-771.8-594.1-771.9L-594.1-771.9z M-584.6-770.4c1.2,0.3,2.3,0.7,3.4,1.2c1-0.2,2-0.3,3.1-0.3
	c5.8,0,9.9,4.3,14.8,7.3c6.7,4.2,16,6.5,23.9,3.5c4.3-1.6,8.4-3.9,11.5-7.6c-6.2,4.2-15.5,4.7-22.6,1.9c-7.8-3.1-15.7-7.3-24.5-7.3
	C-578.3-771.9-581.5-771.3-584.6-770.4L-584.6-770.4z M-581.1-769.2c-1.2,0.2-2.3,0.6-3.4,1c7.2,2.9,14.5,9.9,20.9,16.3
	c1.3-1,2.7-2.1,3.7-3.3C-565.7-760.5-573-766.1-581.1-769.2L-581.1-769.2z M-584.6-768.2c-1.1-0.4-2.3-0.8-3.4-1
	c-8.1,3.2-15.5,8.7-21.2,14.1c1.1,1.2,2.4,2.3,3.7,3.3C-599.1-758.3-591.8-765.3-584.6-768.2L-584.6-768.2z"/>
<path fill="#FFFFFF" d="M-588-769.2c0.2-0.3,2.9-1.2,3.4-1.2c0.6,0,3.4,1,3.4,1.2c-0.1,0.2-3.1,1.1-3.4,1
	C-584.8-768.2-588-769.1-588-769.2z"/>
<g>
	<path d="M-5-4.8h310v310H-5V-4.8z"/>
	<path fill="#FFFFFF" d="M150,64.8c-11.3,0-22,2.7-31.5,7.5c-13.7,6.9-24.8,18.1-31.6,31.8c-4.8,9.6-7.2,20.3-7.2,31
		c0,6.8,1,13.5,2.8,19.8l1.7-0.4c-1.8-6-2.7-12.3-2.8-18.6h12.7c0.1,5.3,0.9,10.5,2.4,15.5l1.7-0.4c-1.5-4.8-2.3-9.9-2.4-15h11.5
		c0,1.7,0.2,3.4,0.4,5c-0.8,0.1-1.5,0.4-1.5,0.4l-0.4,1.1c-0.8,0.1-1.3,1.4-1.3,1.4c-0.6,0.2-1.1,1-0.9,1.2c0.2,0.2-0.4,0.3-0.4,0.3
		v1.6l-0.4,0.5l0.1,1.7c0.4,0,0.4,0.8,0.4,0.8c-0.7,0.1-0.6,1-0.6,1l-1.5,0.5l-0.3,0.4l-1.8-0.1l-0.5,0.5h0
		c-0.2-0.5-0.3-0.9-0.5-1.4l-1.6,0.4c0,0.2,0.1,0.3,0.2,0.5h-2.1l-0.1-0.4l-0.7-0.2l-0.1-0.8l-1.1,0.1l-0.2,0.4l-1.1,0.1
		c0.1,0.7-1.1,1.8-1.3,1.5c-0.2-0.3-0.9-1.1-0.6-1.2c0.4-0.2,1.3-0.3,1.3-0.3v-0.5l-2.6-0.1l-0.3,0.4l-1.1,0.1v1.1l-0.5,0.2
		c-0.4,0.2,0.1,1,0.1,1c0.5,0.5-0.1,1.3-0.1,1.3c-0.4,0.4,0.4,1.2,0.4,1.2c0.6,0.1-0.4,0.6-0.4,0.6c0.1,0.7,0.6,0.9,0.6,0.9
		c-0.4,0.7,0.3,1.1,0.3,1.1l0.1,1.2l0.5,0.3v0.8l0.3,0.5H89l-0.1-1.8c-1-1.2,0.8-1.4,0.9-1c0.1,0.4,0.9,0.7,0.9,0.7
		c0.1,1.1,1.3,1.7,1.7,0.7c0.4-1.1,0.6-0.4,0.9,0.1c0.2,0.5,1.6,1.7,1.6,1.7h1.1l0.1,1c1.2-0.1,1.6,0.1,2.1,1.7
		c0.3,0.9,0.9,1.7,1.8,2.1l1-0.1c0-0.9,1,0.2,1,0.6s1.9,2.1,1.9,2.1l1.9,0.4l0.4,0.3c1.2,1.5,2.4,2.9,3.8,4.3l-9,9
		c-7.8-8-13.6-17.8-16.7-28.5l-1.7,0.4c3.3,11.3,9.4,21.6,17.8,29.9c5.6,5.7,12.2,10.3,19.4,13.8l0.8-1.5c-6.8-3.2-13-7.6-18.4-12.9
		l9-9c4.6,4.5,9.9,8.1,15.7,10.8l0.8-1.5c-5.7-2.6-10.9-6.1-15.4-10.5l1.7-1.7c0.1,0.2,0.2,0.4,0.2,0.6c0.1,1.1,0.6,0.9,0.6,0.9
		l4-0.1l1.4-1.2l3.6-0.1c1.8-0.1,0.7-2.6,0.4-2.6c-0.2-0.2-0.3-0.5-0.2-0.9c2.9,2.2,6,4,9.3,5.5l0.8-1.5c-3.8-1.6-7.4-3.8-10.6-6.5
		l-1.9-1.8l8.9-8.9c3.6,3.4,8,5.8,12.9,7c-0.2,0.2-0.3,0.3-0.2,0.4c0.1,0.4-0.6,0.7-0.6,0.7l-0.6,0.2l-0.4,0.7l-0.9,0.3l-0.2,1.5
		l-0.4,0.3v0.7l-0.5,0.2v0.4l-0.7,0.1l0.4,1.1l0.6,0.3c1,0.1,0.6,1.4,0.6,1.4l0.6,0.1l0.3,0.8l0.6,1.1c0.2,0.9,0.9,0.7,1.1,0.6
		c0.3-0.1,0.6,0.9,0.6,0.9l2.8,0.1c0,0-0.1,0.3,0.4,0.4c0.3,0.1,1.4,0.2,2.4,0.2v1.3c-5.2-0.1-10.3-1.2-15-3.2l-0.8,1.5
		c5,2.1,10.3,3.3,15.9,3.4v11.5c-7.4-0.1-14.8-1.7-21.5-4.8l-0.8,1.5c7,3.2,14.6,4.9,22.4,5v12.7c-9.9-0.1-19.7-2.4-28.6-6.6
		l-0.8,1.5c9.5,4.5,19.8,6.9,30.3,6.8c11.2,0,22-2.6,31.7-7.5c6.7-3.4,12.7-7.8,18-13.1c5.6-5.5,10.1-12,13.6-19l0,0
		c4.6-9.6,7-20,7-30.7c0-9.2-1.8-18.1-5.1-26.4c-3.5-8.7-8.8-16.7-15.5-23.3c-6.7-6.7-14.7-12-23.4-15.5v0
		C167.9,66.6,159,64.8,150,64.8L150,64.8z M149.2,66.6v12.7c-8.6,0.1-16.7,2.2-23.9,5.8c-5.2,2.6-10,6-14.1,10l-9-9
		c5.1-5,10.9-9.1,17.2-12.3C128.6,69.1,138.8,66.7,149.2,66.6L149.2,66.6z M150.8,66.6c8.6,0.1,17,1.8,24.8,4.9
		c8.2,3.3,15.8,8.2,22.3,14.5l-7.6,7.6c-0.3,0.1-0.5,0.1-0.7,0c-0.5-0.2,0.2-0.7,0.2-0.7v-0.6l-0.4-0.4c0,0-1.2,0.1-1.3-0.1
		c-0.1-0.4-0.2-0.8-0.3-1.2l-0.1-1.2l-0.5-0.2l-0.1-0.4l-0.8,0.1V88l-0.4-0.1l-0.4-0.2l-0.1-0.9l-1.6-0.1l-0.5-0.7l-0.6-0.9
		l-1.8-0.1l-0.4-0.4l-0.7-0.1l-0.5-0.2l-0.2,0.4l-1.3,0.1l-0.1,0.4c-0.4,0.2-1.6,0.2-2.5,0.2c-1.4-0.7-2.9-1.4-4.3-2l-0.6,1.6
		c1.2,0.5,2.3,1,3.5,1.6c-0.1,0.2-0.2,0.4-0.3,0.4c-0.4,0-0.2,0.9-0.2,0.9s0.9,0,1.2,0.1s0.3,0.8,0.3,0.8c1.1-0.1,1.5,1.4,1.4,1.7
		c-0.1,0.4,0.4,0.4,0.4,0.4s0,1.1-0.1,1.4c-0.1,0.3,0.9,0.5,1.2,0.9c0.3,0.4-0.1,1.9-0.4,1.9c-0.2,0.1,0.6,0.3,0.5,0.6
		c-0.1,0.4,0.2,0,0.3,0.6c0.1,0.6,0.2,1.8,0.2,1.8l1,0.1c0.1-0.9,2-1,2.3-0.9c1.2,0.4,2.1,2.3,2.1,2.7c0,0.4-0.8,0.5-0.8,0.5l0,0.5
		l-2.5,2.5c-0.3-0.2-0.5-0.2-0.7-0.1c-0.4,0.2-0.2-1.5-0.2-1.5s0.6-0.4,0.9-0.2c0.3,0.2-2.4-3.6-3-3.2c-0.6,0.4-1.8-0.4-1.8-1
		c0.1-0.6-2.6-2.8-2.6-2.8s-0.9-0.6-1-0.1c-0.1,0.4-0.4,0.7,0,0.9c0.4,0.2,0.4-0.4,0.9,0.2c0.5,0.5,1.4,1.1,1.1,1.6
		c-0.4,0.4-0.8,0.6-0.8,0.6l0.5,0.6h0.8l0.1,1.2c0,0,0.9,0.4,1.1,0.9c0.1,0.3,0.2,0.6,0.1,0.8c-1.6-1.2-3.2-2.3-5-3.3
		c0-0.1,0-0.2,0-0.4c-0.2-0.5,0.6-0.7,0.9-0.2l0.7-0.1l0.1-0.6l-1-0.8H171c0,0-0.1,0.6-0.6,0.4c-0.5-0.2-0.2-0.2-0.6-0.2
		c-0.4-0.1-0.3,0.7-0.2,1.1c-1.1-0.6-2.2-1.1-3.4-1.5c-4.9-2-10.1-3.1-15.4-3.2v-6.3c0.5,0,0.7-0.2,0.7-0.4c0.1-0.3,0.1-0.4,0.6-0.4
		c0.4-0.1-0.1-0.9-0.5-0.9c-0.3,0.1-0.6,0-0.8-0.2V81c6.8,0.1,13.4,1.5,19.5,3.9l0.6-1.6c-6.4-2.6-13.3-4-20.2-4.1L150.8,66.6z
		 M162.7,69.6l-0.7,0.4l-0.5-0.3l-0.2,0.4l0.6,0.4l0.1,0.1l0.1-0.1l0.8-0.5L162.7,69.6z M166,71.3l-0.6,0.5l-0.4-0.4l-0.3,0.3
		l0.5,0.5l0.1,0.1l0.1-0.1l0.7-0.6L166,71.3z M97.6,71.7c-7.1,2.8-14.6,5.6-19.2,12.8c-2.7,4.2-3.1,9.3-5.2,13.6
		c3.9-3.7,8.5-6.4,11.8-10.8C88.9,82.1,92.4,76.2,97.6,71.7L97.6,71.7z M202.4,71.7c5.2,4.5,8.6,10.4,12.6,15.7
		c3.3,4.4,7.9,7.1,11.8,10.8c-2.1-4.4-2.5-9.4-5.2-13.6C217.1,77.2,209.5,74.4,202.4,71.7L202.4,71.7z M161.1,72.6
		c-0.4,0-0.8,0.1-0.9,0.3c-0.1,0.3-0.5,0.4-0.5,0.4l-1.6,0.1c-0.2,0.4-1,0.7-1.1,0.4c-0.2-0.6-1.1,0.8-0.1,1.1c0.9,0.3,1.8,0,1.8,0
		l0.2-0.4l3.5,0.1c0.3-0.3,0.4-0.7,0.4-0.7s0.8-0.3,1.2-0.1c0.4,0.1,0.1-1-0.3-0.9c-0.4,0.1-1.1,0.1-1.1,0.1h-1.3
		C161.5,72.7,161.3,72.6,161.1,72.6L161.1,72.6z M154.7,74l-0.9,0.4l-1,0.7l-1.1,0.1l-0.6,0.7l2.3,0.2l0.4,0.7l1.6,0.2l1.1,1.1
		c0.9,0.3,1.1-0.1,0.6-0.6l-0.9-0.9v-0.8l-0.3-0.3l-0.3-1L154.7,74z M149.2,80.9v11.5c-6.2,0.1-12.3,1.6-17.8,4.3
		c-4,2-7.7,4.5-10.9,7.6l-8.1-8.1c4-3.9,8.7-7.2,13.7-9.7h0C133.2,82.9,141.1,81,149.2,80.9L149.2,80.9z M78.5,81.3
		c-3.6,0.9-6.6,3.3-9.3,6.2c-5.6,6.3-5.1,15.5-4.4,23.7c0.2,2.5,0.1,4.7-0.2,7.3c1.7-3.5,4.5-6.8,7.8-9.3
		c7.3-5.5,15.4-12.7,15.5-22.1c-2.4,6.8-9.8,9.6-14.7,14.2c-2.5,2.4-4.5,5.2-5.7,8.5l-0.2-0.1c0.6-2.7,1.8-5.2,2.5-7.8
		C71.9,94.6,71.6,86.1,78.5,81.3L78.5,81.3z M221.5,81.3c7,4.8,6.6,13.4,8.7,20.6c0.8,2.6,1.9,5.1,2.5,7.8l-0.2,0.2
		c-1.3-3.2-3.2-6.1-5.8-8.5c-4.9-4.6-12.3-7.4-14.7-14.2c0.1,9.4,8.1,16.6,15.5,22.1c3.3,2.5,6.1,5.8,7.8,9.3
		c-0.3-2.6-0.4-4.8-0.2-7.3c0.8-8.2,1.2-17.5-4.4-23.7C228.1,84.5,225.1,82.2,221.5,81.3L221.5,81.3z M183,82.7
		c-0.6,0-1.4,0.4-1.3,0.8c0.1,0.4,0.4,0.7,0.9,0.9l1.1,0.4c0,0,1.3,1.6,1.3,0.8c-0.1-2.2-1.1-2.2-1.5-2.7
		C183.3,82.7,183.2,82.7,183,82.7L183,82.7z M160.7,83.6l-0.3,0.6l0.4,0.2l0.3-0.7L160.7,83.6z M162,84.3c0-0.1-0.4,0.5-0.7,0.7
		c0.3,0.2,0.8,0.4,0.8,0.4c0.6,0,0.9,0.4,0.9,0.7c0,0.2,0.8,0.1,0.8,0.1l0.1-0.5l-0.6-0.7l-0.5-0.4C162.8,84.6,162.1,84.5,162,84.3
		C162.1,84.3,162.1,84.3,162,84.3L162,84.3z M159,84.7l0,0.4l0.6,0.1l0.4,0.7l0.4-0.2l-0.5-0.8l-0.1-0.1l-0.1,0L159,84.7z
		 M142.6,86.5c-0.4,0-0.7,0.1-0.7,0.2c0.1,0.4,0.6,0.8,0.6,0.8s1.1,0.1,1.1,0.3c0.1,0.2,0.8,0.3,0.9,0.1c0.1-0.2,0.4-0.6-0.3-0.6
		c-0.6,0-0.5-0.4-0.7-0.6C143.4,86.6,143,86.5,142.6,86.5L142.6,86.5z M199.1,87.2c12.3,12.6,19.3,29.4,19.5,47.1l-12.7,0
		c-0.1-7.8-1.8-15.4-5.1-22.5c0.1-0.4,0.3-0.8,0.8-0.6c0.7,0.2,0.2-1.6,0.2-1.6s-1-0.7-0.9-1.1c0.1-0.4-1-1.1-0.9-1.4
		c0.1-0.3-0.9-0.9-0.9-1.2c0.1-0.3-0.5-1.1-0.5-1.1l-1.1-1l-0.1-0.7l-0.9-0.1l-1.7-2.1l0.1-0.6l-0.5-0.1v-0.8l-0.5-0.3l-0.8-0.1
		l-1.6-1.7l-0.1-0.8h-0.8l0.1-1.2L199.1,87.2z M160.6,87.2v0.6l0.8,0.1l-0.2-0.6L160.6,87.2z M100.9,87.2l9,9
		c-4.2,4.3-7.7,9.3-10.3,14.7c-3.5,7.3-5.4,15.2-5.5,23.3H81.4c0.1-10.2,2.5-20.2,7-29.4C91.6,98.4,95.8,92.4,100.9,87.2L100.9,87.2
		z M164,90.6c-0.1,0-0.1,0-0.1,0.1c0,0.2,0.3,0.2,0.4,0.7c0.1,0.4,0.1,1.1,0.7,1.3c0.6,0.1,0.8,0.3,0.9,0.6c0.1,0.3,0.9,0.4,0.9,0.4
		l0.6,0.3l1.7,1.4v-0.6c0,0-0.1-0.6-0.4-0.6c-0.4,0-1-0.4-0.9-0.7c0.1-0.3-1.2-0.6-1.2-0.6s-1.2-1.1-0.8-1c0.4,0.1,0.2-0.5,0.2-0.5
		s-0.8,0.1-1.1,0.1c-0.2-0.1-0.2-0.7-0.2-0.7S164.3,90.6,164,90.6L164,90.6z M125,91.1l-0.3,0.3l0.4,0.4l0.3-0.3L125,91.1z
		 M63.6,94.1c-0.2,0-0.3,0.1-0.4,0.2c-4.9,6.2-8.1,13-8.1,21.3c0,10.3,5.9,17.5,6.7,27.2c1.5-10.1,10-17.3,14.4-26.1
		c1.7-3.5,2.8-7.4,3.3-11.2c-0.6,1.6-1.6,3.1-3,4.4c-5.7,5.4-12.4,10.7-13.7,18.4c-0.2,1.1-0.3,2.2-0.6,3.3
		c-0.2,0.1-0.2-0.2-0.4-0.2l0.7-9.5C63.2,112.5,58.3,102.2,63.6,94.1L63.6,94.1z M236.4,94.1c5.4,8.2,0.5,18.4,1.2,27.7l0.7,9.5
		c-0.1,0.1-0.1,0.4-0.4,0.2c-0.3-1.1-0.4-2.2-0.6-3.3c-1.3-7.6-8-13-13.7-18.4c-1.3-1.2-2.3-2.7-3-4.4c0.5,3.8,1.5,7.7,3.2,11.2
		c4.4,8.9,12.9,16,14.4,26.1c0.7-9.7,6.7-16.9,6.7-27.2c0-8.3-3.3-15.1-8.1-21.3C236.7,94.2,236.6,94.1,236.4,94.1L236.4,94.1z
		 M149.2,94.1v12.7c-3.9,0.1-7.7,1-11.2,2.7c-2.7,1.3-5.2,3-7.4,5.1l-9-9c3.1-3,6.6-5.5,10.5-7.3C137.4,95.6,143.2,94.2,149.2,94.1
		L149.2,94.1z M150.9,94.1c5.1,0.1,10.1,1.2,14.7,3c1.3,0.5,2.5,1.1,3.7,1.8c0.1,0.1,0.1,0.1,0.2,0.1c2,1.1,3.9,2.3,5.7,3.8v0
		c0.1,0.5,0.6,0.7,0.6,0.7l0.3,0l0.7,0.6v0.6c0.5-0.1,1.3,0.5,1.4,0.9l-8.8,8.8c-2.5-2.3-5.4-4.2-8.5-5.5c-3.2-1.3-6.6-2.1-10.1-2.2
		L150.9,94.1z M111.1,97.4l8.1,8.1c-3.3,3.4-6,7.4-8,11.7c-2.5,5.4-3.8,11.2-3.9,17.1H95.8c0.1-7.9,1.9-15.6,5.3-22.5
		C103.6,106.5,107,101.6,111.1,97.4L111.1,97.4z M183.5,102.8c1,0.6,1.7,1.9,1.6,2.2c-0.1,0.3,0.8,0.2,0.8,0.2
		c0.2-1.3,1.3-0.9,1.4-0.4c0.1,0.4,0.3,1.4,0.3,1.4l0.4,0.6l0.5,0.5l0.8-0.1l0.2,0.4l0.9,0.2c0,0,0.8,0.9,0.8,1.1
		c0.1,0.2,1.1,0.1,1.4,0.2c0.3,0.1,0.7,0.3,0.8,0.6c0.1,0.4,0.5,0.9,0.5,0.9s0.8,0.2,0.9,0.5c0.1,0.3,0.4,0.9,0.4,0.9l0.7,0.6
		l0.1,0.7l0.8,0.1l0.2,0.9l1.3-0.1l0.7-0.5c0.2-0.1,0.4-0.2,0.6-0.4c2.9,6.6,4.4,13.7,4.5,20.9h-11.5c0-2-0.2-4-0.6-6
		c0.1-0.3,0.1-0.5,0-0.7c-0.2-0.2,0.2-1.2,0.2-1.2s0.3-0.6,0-1.2c-0.3-0.6,0.1-1.2,0.3-1.5l-0.6-0.3l-0.6-0.1l-0.4,0.1
		c-0.1-0.5-0.3-0.9-0.4-1.4l0.4,0.1v-0.4l-0.5-0.2c-0.1-0.3-0.2-0.6-0.3-0.9l-0.1-1.5l-0.5-0.4l0.1-0.6l-0.6-0.2l0.3-0.9l-0.5-1
		h-0.7c-0.3-0.7-0.7-1.4-1.1-2c0.3-0.1,0.6-0.2,0.9-0.3l-0.1-0.8l-0.6-0.4l-0.2-0.9c0,0-0.8,0.2-0.7,0.6c0,0.1,0,0.2-0.1,0.2
		c-0.5-0.8-1-1.6-1.6-2.3l0.1-0.1c0.3-0.5,0.1-0.8-0.4-0.9c-0.5-0.1-0.5-0.1-0.6-0.7c-0.1-0.6-0.7-0.7-0.7-0.7l-0.2-0.9l-0.5,0.3
		c-0.3-0.3-0.6-0.6-0.9-1l0.3-0.8c-0.2,0-0.4-0.2-0.5-0.4L183.5,102.8z M137.9,104.6l-0.3,0.3l0.4,0.4l0.3-0.3L137.9,104.6z
		 M136.3,104.9l0.1,0.8h1.1c0.4,0-0.4-0.5-0.4-0.5S136.2,105.2,136.3,104.9L136.3,104.9z M183.5,105l-0.4,0l0.1,0.6l0.4,0L183.5,105
		z M120.4,106.7l9,9c-1.9,2-3.4,4.2-4.7,6.7c-0.3,0-0.6,0.1-0.7,0.3c-0.2,0.6-1.1,0.4-1.1,0.4l-0.2,0.3l-0.7,0.2l-0.1,0.4l-0.9,0.1
		l2.1-0.1c0.6-0.1-0.2,1.2-0.6,1.2l-1,0.1l-0.4,0.4h-0.9l-0.4,0.6l-1.4-0.1c0,0-0.8,0.7-0.7,0.9c0.1,0.2-0.2,0.9-0.4,0.9
		c-0.2,0-0.6,0.7-0.5,0.9c0.1,0.2-0.4,0.9-0.4,0.9l-0.1,0.7l-0.4,0.2v1.9l-0.9,0.6v0.9l-0.4,0.4h-5.8c0.1-5.7,1.4-11.2,3.7-16.3
		C114.6,113.9,117.2,110,120.4,106.7L120.4,106.7z M179.5,106.9c0.3,0.3,0.3,0.4,0.7,0.7c0.1,0.1,0.3,0.2,0.4,0.2
		c0.2,0.3,0.5,0.5,0.7,0.8l-0.2,0.2c0,0.8,0.4,0.6,0.8,0.5c0.1,0.1,0.2,0.3,0.3,0.4c0,0.5,0,1.2,0.8,1.1h0c0.9,1.2,1.7,2.5,2.5,3.8
		l0,0.1h0l0.4,0.6c-0.2,0.2-0.2,0.3-0.2,0.3l-1.1,0.1v1.1L184,117l0.1,0.7l0.8-0.1c0,0,0,0.9,0.2,0.5c0.2-0.4,2,0.1,1.8,0.9
		c0,0.4,1.8,1.3,1.6,2.4c0.2,0,0.3,0.1,0.4,0.1c0.3,1,0.6,2,0.9,3l-0.1,0.3c0,0,0.1,0.1,0.3,0.2c0.2,0.9,0.4,1.8,0.6,2.7
		c-0.1,0.8-0.2,1.5-0.6,1.8c-0.8,0.5,0.1,0.2,0.1,0.2l-0.1,1.6c0.2,0.7,0.6,0.4,0.8,0c0.1-0.2,0.2-0.3,0.4-0.4
		c0.1,1.1,0.2,2.2,0.2,3.3h-8.6l0.2-0.2l0.4-1l1.2-0.4l0.1-0.9l-0.6-0.1c0,0,0.7-1.3,1.1-1.3c0.4,0,2.7,0,2.9-0.1
		c0.2-0.1,0.6-1.3,0.6-1.5c0-0.2,0.6-0.3,0.8-0.4c0.2-0.1,0.7-0.7,0.8-0.9c0.2-0.3-0.3-2.1-0.6-1.8c-0.3,0.3-0.9,0.4-0.9,0.4
		l-0.2,0.8l-0.4,0.3c0,0,0.1,0.2,0,0.7c-0.1,0.5-0.7,0.8-0.7,0.8l-0.3,0.4c0,0-1.7,0.1-1.9,0c-0.6-0.3-0.2-1.2,0.2-1.1
		c0.4,0.1-0.1-1.2-0.1-1.2l0.6-0.1c0,0,0.1-1.3,0.3-1.3c0.2,0-0.1-0.4-0.4-0.6c-0.3-0.2-0.6-0.9-0.9-0.9c-0.3,0.1-1.4,0-1.4,0
		l-0.2,0.4l-0.8,0.1c0,0,0.1,0.6-0.1,0.7c-0.4,0.5-2.1,1.6-1.3-0.2l0.2-0.4v-0.7l-1.3-0.1c0,0-0.6-0.2-0.6-0.5
		c0-0.3-0.1-0.6-0.1-0.6l-1.5-1.7l-1.8-0.2l-0.1-0.4l-1.1-0.1c-0.1-0.1-0.3-0.1-0.5-0.2c-0.5-0.8-1-1.6-1.6-2.3l0-0.2
		c-0.1-0.3-0.8-1.3-1.3-1.4l-0.5-0.5L179.5,106.9z M186.5,107.7c-0.1,0-0.2,0.1-0.2,0.2c0,0.3,0.4,0.4,0.2,0.8
		c-0.1,0.2,0,0.5,0.2,0.6c0.1,0,0.1,0,0.2,0c0.3,0,0.5,0.1,0.8,0.3c0.3,0.1,0.5,0.4,0.7,0.6l0.7-0.2c0,0,0.1-0.7-0.2-0.5
		c-0.3,0.2-0.5-0.5-0.8-0.4c-0.3,0.1-0.4-0.3-0.7-0.6c-0.3-0.4-0.2-0.4-0.6-0.7C186.7,107.8,186.6,107.7,186.5,107.7L186.5,107.7z
		 M149.2,108.5V120c-1.5,0.1-2.9,0.4-4.3,0.9h0l-0.1-0.8l0.4-0.2l-0.6-0.2l-0.4,0.6l-0.2,0.6l-0.7,0.1v0.4h-0.5v0.4
		c-1,0.6-2,1.2-2.9,2l-8.1-8.1c2.1-2,4.4-3.6,7-4.8C142,109.4,145.6,108.6,149.2,108.5L149.2,108.5z M150.9,108.5
		c6.5,0.2,12.7,2.8,17.4,7.2l-0.5,0.5c-0.2-0.2-1-0.4-1-0.6c0-0.3-0.7-0.6-0.6-0.2c0.1,0.4-0.5,0.6-0.6,0.5
		c-0.1-0.1-0.6,0.4-0.6,0.4c0,0.2-0.1,0.5,0.3,0.6c0.4,0.1,1.2-0.3,1.3,0.2c0,0.1,0,0.3,0.1,0.4l-2.8,2.8c-0.4,0-0.7,0-0.7,0
		c-0.2,0.7-1.2-0.1-0.9-0.5c0.3-0.4,0.3-0.7,0.3-0.7l-0.4-0.1l-0.4,0.8c-1,0-1.3,0.6-1.1,0.9c0.2,0.4-0.3-0.1-0.4,0.4
		c-0.1,0.5,0.1,0.5,0.5,0.7c0.4,0.2-0.2,0.2,0.1,0.6c0.2,0.2,0.6,0.2,0.7,0.2l-0.5,0.5c-0.5,0.2-1.1,0-1.1,0c0,0.1-0.1,0.3-0.2,0.3
		c-1.1-0.9-2.4-1.7-3.7-2.3c0.2-0.2,0.6-0.2,0.8-0.6c0.2-0.7,0.4-1.4,0.4-2.1c0,0-1.1-0.1-1.2,0.3c-0.1,0.4-0.8,0.6-0.8,0.6
		s-0.6,0.2-0.4,0.5c0.2,0.3-0.4,0.4-0.4,0.4s0,0.2,0,0.4c-1.1-0.3-2.3-0.5-3.5-0.6L150.9,108.5z M188.6,110.9l-0.9,0.1
		c0.2,0.3,0.6,0.5,0.6,0.8c0,0.3-0.2,0.5,0.3,0.6c0.4,0.1,0.7-0.1,0.9,0.3c0.1,0.4,0.1,0.8,0.1,1.2c-0.1,0.3,0.1,0.7,0.4,0.7
		s0.4,0.1,0.4,0.3c0,0.2,0.4-0.8,0.4-0.8c-0.4-0.3-0.6-0.9-0.6-0.9s-0.4-1-0.4-1.1c0-0.2-0.5-0.3-0.7-0.4
		C189,111.6,188.6,110.9,188.6,110.9L188.6,110.9z M181.8,111.2l-0.7,0.1l0,0.4l0.7-0.1L181.8,111.2z M182.3,111.7v0.4h0.4v-0.4
		H182.3z M181.7,112.4c0,0-0.4,0.6-1.3,0.3c0,0-0.1,1.4-0.6,1.6h-1c0,0,0.2,0.4,0.4,0.6c0.2,0.2,0.7,0.6,0.2,0.9
		c-0.5,0.3,0.1,0.2,0.1,0.2s-0.1,1.5-0.7,1.3c-0.6-0.2-0.8,0.8-0.8,1.1c0,0.3,2.5,0.4,2.1,0c-0.2-0.2,0.3-0.7,0.3-0.7
		s1.7,0.1,2.1,0.1c0.3,0,0.6-0.1,0.4-0.4c-0.2-0.4-0.8-0.3-0.8-0.3s-0.9,0.2-1.6-0.2c-0.8-0.4,0.2-0.6,0.3-0.6s0.8-0.5,0.5-0.9
		c-0.3-0.4,0-1,0-0.7c0,0.3,0.8,0.4,0.9,0.2c0.1-0.2,0-0.9-0.4-1.1c-0.4-0.2,0.6-0.4,0.4-0.7C181.8,112.9,181.7,112.4,181.7,112.4
		L181.7,112.4z M183.1,114.6v0.5h0.4v-0.5H183.1z M184.1,114.8l-0.2,0.4l0.4,0.2l0.2-0.4L184.1,114.8z M191,115.4
		c-0.2,0.1,0.1,0.8,0,1c-0.2,0.2-0.4,0.4-0.6,0.7c-0.2,0.2,0.4,0.5,0.4,0.7c0,0.2,0.2,1.3,0.2,1.3s0.5,0.2,0.6,0.5
		c0.1,0.3,0,0.9,0.2,0.9c0.2,0.1,0.6,0.4,0.5,0.6c-0.2,0.3-0.2,0.9-0.2,0.9l0.3,0.7l0.6,0.4c0,0,0.2-1.7-0.1-1.8
		c-0.4-0.1-0.2-1.1-0.2-1.1s0.4-1.4-0.2-1.4c-0.6,0-0.1-0.7-0.5-0.9c-0.4-0.2-0.2-1.2-0.3-1.5c-0.1-0.3-0.1-0.6-0.5-0.9
		C191,115.4,191,115.4,191,115.4L191,115.4z M173.8,116.8l-0.7,0.1l0,0.4l0.7-0.1L173.8,116.8z M163,116.8c-0.1,0-0.3,0-0.4,0.1
		l-1.1,0.1l-0.1,0.5l0.8,0.1c0,0,0.4,0.3,0.4,0.5c0,0.2,0.5,0.4,0.8,0.4c0.3,0,1.1-0.6,1.1-0.6s0.4-1,0.1-0.9
		c-0.3,0.1-0.8,0.5-0.9,0.1C163.4,116.9,163.2,116.8,163,116.8L163,116.8z M130.5,116.9l6.9,6.9l-0.7,0c-0.3,0.7-1-0.1-1-0.1
		c-0.1-0.4-1.1,0-1.1,0c0,0.8-1.3-0.4-1.3-0.4l-2.5-1.8c-1.4-1.3-3.5,0.4-3.6,0.7c0,0.5-0.4,0.6-0.9,0.5
		C127.5,120.6,128.9,118.7,130.5,116.9L130.5,116.9z M158.4,117.1l-0.4,0.1l0.1,0.6l0.4-0.1L158.4,117.1z M160.8,117.2l-1.6,0.1
		l0,0.4l1.6-0.1L160.8,117.2z M147.5,117.3v0.4h0.6v-0.4H147.5z M151.1,117.4l-0.1,0.4l0.5,0.1l0.1-0.4L151.1,117.4z M152,117.6
		L152,118l0.5,0.1l0.1-0.4L152,117.6z M146.3,117.8l-0.1,0.4l0.5,0.1l0.1-0.4L146.3,117.8z M158,117.8l-0.2,0.1l0.1,0.4l0.2-0.1
		L158,117.8z M175.1,118l-0.2,0.5l0.4,0.2l0.2-0.5L175.1,118z M169.9,118c0.3,0.1,0.5,0.1,0.8,0.2c0.3,0.4,0.7,0.8,1,1.3l-0.9-0.1
		l-0.6-0.1l-1.1-0.1c-1.1,0.7-1.3,1.6-1.3,1.6c-0.5,0.9-1.5-0.1-1.5-0.7l1.9-1.9c0.1,0,0.2,0,0.3,0C168.9,118.2,169.9,118,169.9,118
		L169.9,118z M153,118.2v0.4h0.6v-0.4H153z M145.8,118.3l-0.1,0.4l0.6,0.1l0.1-0.4L145.8,118.3z M145.6,118.9l-0.4,0.1l0.1,0.4
		l0.4-0.1L145.6,118.9z M154,118.9l-0.4,0l0,0.5l0.4,0L154,118.9z M176.4,119.1c-0.3,0-0.6,0-0.8,0.1c-0.4,0.1-0.3,0.4,0,0.7
		l0.9-0.2c0,0,0.6-0.3,0.5-0.5C176.9,119.1,176.6,119.1,176.4,119.1z M171.6,119.5c0.3,0.4,0.5,0.8,0.8,1.1
		c-0.1,0.2-0.1,0.4-0.1,0.7c0.2,1.1,0.6,1.5-0.1,1.5c-0.7,0-0.9-0.6-0.9-0.6s-0.6-0.2-0.6,0.1c0,0.3-0.2,0.9,0,1.1
		c0.2,0.3-0.3,0.7-0.5,0.5c-0.2-0.2-0.8-0.9-0.6-1.1c0.2-0.2-1-1.6,0.2-1.8c1.1-0.2-0.1-0.9,0.4-1l0.6-0.3h0.6L171.6,119.5z
		 M53.3,119.8c-1.1,2.4-1.6,5.1-2.2,7.7c-1.3,6.7,0,13.9,1.8,20.1c2.3,7.7,9.9,13.3,13.7,20.4l0.5,0.4c-0.6-3.9-0.8-8,0.2-11.7
		c1.7-5.9,3.7-11.6,4.8-17.7c0.9-4.7,1.8-10.1,1.3-14.6c-0.6,2.5-1.3,4.9-2.6,7c-5.2,8-10.5,17.4-6.8,27.5c-0.1,0.1-0.2,0.3-0.3,0.2
		c-1.4-3.3-1.8-7.2-2.7-10.8C58.4,138.8,51.1,130.8,53.3,119.8L53.3,119.8z M246.8,119.8c2.1,11-5.2,19-7.7,28.5
		c-0.9,3.6-1.3,7.4-2.7,10.8c-0.1,0.1-0.2-0.1-0.3-0.2c3.6-10.1-1.7-19.5-6.8-27.5c-1.4-2.1-2-4.5-2.6-7c-0.6,4.6,0.4,9.9,1.3,14.6
		c1.1,6.1,3.2,11.8,4.8,17.7c1.1,3.7,0.8,7.8,0.2,11.7l0.5-0.4c3.8-7.1,11.4-12.6,13.7-20.4c1.8-6.2,3.1-13.3,1.8-20.1
		C248.4,124.9,247.9,122.2,246.8,119.8L246.8,119.8z M149.9,121.6l0.1,1.7l-0.8-0.3h-0.5l-0.2-0.4l-0.4-0.1v1.6l0.4,0.4l0.4,0.4
		l0.7,0.1l0.2,0.9l1.8,0.1l0.2,0.4l1.1,0.1l2.1,2.1l-0.1,0.7l-0.4,0.2c0.1,0.5-0.9,0.2-0.9,0.2v0.4l0.5,0.1l0.5,0.3l0.7-1.2
		c0.8-0.5,1.1,0.2,1.2,0.7c0.1,0.4-0.4,0.4-0.4,0.4v1l0.4,0.1c0.7,0.9-0.3,1.4-0.3,1.4l-0.2,0.7c-0.2,0.6-1,0.5-1,0.5l-0.3,0.4
		l-0.9,0.2l1.7,0.2c0.2-0.6,0.6-0.7,0.8-0.4c0.2,0.3,0.2,0.8,0.2,0.8l0.4,0.1l-0.1,0.8l0.4,0.1v2.3l0.5,0.6c0.9-0.4,0.9,0.2,0.4,0.5
		c-0.4,0.3-0.2,1.6-0.2,1.6l-0.3,0.4v0.6l-0.4,0.3v0.8c-0.7-0.4-1.6-0.2-1.8,0c-0.6-0.4-2-0.3-2,0.1c0.4,0.6-0.5,0.7-0.5,0.7
		l-0.5,0.6c0.4,0.7-0.4,0.8-0.4,0.8v1.4l-0.9,0.8l0,1.3c-3.7,0.4-7.4-0.8-10.2-3.3c0.1,0,0.1-0.1,0.1-0.1c0.4-0.6,0.9-0.6,0.9-0.6
		l0.2-0.5l1.9,0.1c0.1-0.8,1.1-0.5,1.1-0.2c0,0.4,0.7,0.1,0.7,0.1l0.5-0.8h0.8l0.1-0.9l0.4-0.2v-1.3c1.1-0.4,1-1.4,1-1.4l0.3-0.4
		l-0.1-0.5c-0.6-0.2-0.3-0.7,0.1-0.6c0.4,0.1-0.5-0.7-0.5-0.7c-0.4,0.4-0.8-0.4-0.8-0.4h-1.1v-1l-0.1-0.9l-1.1-0.5l-0.8,0.7l-0.2,1
		v0.7l-0.7,0.1l-0.1,1.9l-0.6,0.2l0.1,0.7l-0.8,0.2l-0.8,0.2l-0.1,0.9l-0.6,0.4l-0.3,0.9l-0.3,2c-1-1-1.8-2.2-2.4-3.5
		c0.1-0.5,0.2-1,0.2-1c-0.6-0.3-0.3-1.3,0.4-0.4c0.7,0.9-0.4-1.7-0.4-1.7l-0.6-0.5l-0.7-0.1c-0.1-0.7-0.2-1.4-0.2-2.1
		c0-0.3,0-0.6,0-0.9c0.2-0.2,0.4-0.1,0.4-0.1l0.4,0.4l0.6,0.5l0.1,0.4l-0.4,0.2l-0.1,0.6l0.2,0.8h0.6c0.2-1.1,1.7-1.1,2.1-0.4l0.4-1
		c-1-0.5,0-1.3,0.3-0.9c0.3,0.4,0.9-0.9,0.9-0.9s0.5,0.6,0-0.2c-0.5-0.9,0.3-1.3,0.3-1.3c-0.1-0.9,0.9-0.7,0.9-0.7l0.1-1.2l-1-0.1
		c-0.2,1-1.1,0.2-0.6-0.1c0.4-0.2,0.9-0.7,0.9-0.7v-0.7l0.4-0.1l0.1-0.7h1.1l0.9-0.4l0.2-0.4l1-0.1l1.4-1.3l-0.1-0.6
		c-0.9,0,0-0.7,0-0.7l0.1-1.1H147l-0.1-1.5C147.9,121.8,148.9,121.6,149.9,121.6L149.9,121.6z M193.1,125.8l-0.1,0.6l0.4,0.1
		l0.1-0.6L193.1,125.8z M192.8,127.8l-0.2,0.4l0.4,0.2l0.2-0.4L192.8,127.8z M119.2,130.6c0.4,0,0.8,0.1,1.2,0.3l1-0.1
		c0.2,0.1,0.4,0.3,0.5,0.6c-0.1,0.7-0.1,1.3-0.2,2c-0.1,0.2-0.2,0.3-0.2,0.3c-0.1,0.2-0.1,0.4-0.2,0.6h-2.7l0-0.1l-0.8-0.1
		c-0.9-0.5-0.4-2.4-0.4-2.4C118,130.9,118.7,130.6,119.2,130.6L119.2,130.6z M143.8,132l-0.1,0.4h-0.4l-0.1,0.6h0.4l0.1,0.4
		l-0.3,0.3l-0.1,0.4l-0.6,0.1l-1.3,1.2l-0.1,0.6l-0.4,0.5l-0.4,1.1l-1.5,0.1l-0.3,1.3l0.2,1.1l1.3,0.5l0.2-0.7l0.4-0.2l0.1-0.7
		l0.3-0.5l0.4-0.5l0.1-0.6l0.7-0.4l0.9-0.2l0.4-0.4l0.1-0.9l0.1-0.7l0.3-0.4l0.8-0.4v-1.4h-0.4l-0.1-0.5L143.8,132z M188.3,132.4
		l-0.1,0.4l0.8,0.2l0.1-0.4L188.3,132.4z M186.6,133l-0.2,0.1l-0.5,0.3l-0.5-0.3l-0.2,0.4l0.6,0.4l0.1,0.1l0.1-0.1l0.4-0.2l0.1,0.1
		l0.4-0.2l-0.1-0.4L186.6,133z M181.1,136h9.9c-0.1,5.4-1.3,10.8-3.5,15.8c-1.9,4.3-4.6,8.3-7.9,11.7c-0.1-1-0.3-2-0.5-3l-0.6-0.3
		l0.1-1.7H178l-1.3,1.7l-0.1,0.5l-0.7-0.7l0.4-0.4l-0.1-0.9l0.5-0.4v-0.7l0.4-0.1l0.1-1.6l0.4-0.1v-3.5l-1.1-1
		c-0.1,0.4-1.2,0.4-1.2,0.4s-0.3,0.5-0.5,0.5s0.3,0.6,0.1,1.1c-0.1,0.4-0.7,0.4-0.7,0.4l-1.1,0.3l-0.3,0.4h-1.1l-0.1-0.6l0.3-0.4
		l0.9-0.3l0.7-0.4l0.4-0.7c0.1-0.7,0.9-0.6,0.9-0.6s1.6-1.4,1.7-2c0.1-0.7,0.6-2.4,1.6-2.4h1.8c0.7-0.3,0.5-1.2,0.5-1.2l0.9-0.1
		l0.2,0.5c0,0,1.3,0.1,1.4-0.1c0.1-0.2,0.4-0.7,0.8-0.5c0.4,0.2,1.5-0.5,1.5-0.5c0.1-0.5,1.8-0.3,1.8-0.3l0.2-0.6
		c0,0-1.2-1.7-1.4-1.7c-0.2,0-1.3-1-1.5-0.6c-1.1-0.3-1.1-1.9-1.1-1.9l-0.4-1c0-0.6-1.1-1.8-1.3-1.7
		C181.2,136.7,181.1,136.3,181.1,136L181.1,136z M192.8,136h11.5c-0.1,7.6-1.8,15.2-5.1,22.1h0c-2.6,5.5-6,10.5-10.2,14.8l-0.3-0.3
		l-0.1-1.8l-0.4-0.4l-0.1-1.8c0.3-0.9-1.3-2.3-1.5-2c-0.1,0.3-1.1,0.1-1.1,0.4c0,0.3-0.6,1.7-0.3,2.2c0,0,0,0.1,0,0.1l-4.5-4.5
		c3.5-3.6,6.2-7.7,8.2-12.2C191.4,147.4,192.7,141.7,192.8,136L192.8,136z M205.9,136h12.7c-0.1,10-2.5,19.9-6.8,29h0
		c-3.2,6.7-7.5,12.8-12.7,18.1l-8.9-8.9c4.3-4.4,7.9-9.6,10.5-15.2C204,151.7,205.8,143.9,205.9,136L205.9,136z M109,136h5l0.1,0.4
		l-1.1,1.2l0.1,1.1l-0.6,0.2l-0.1,0.5L112,141l0.7,0.1c0.4-0.2,0.3,0.9,0,1.1c-0.3,0.1-1.1,0.4-0.6,0.7c0.4,0.3-1.1,0.2-1.1-0.2
		s-0.8-0.8-1.1-0.7c-0.1,0.1-0.3-0.1-0.4-0.3C109.2,139.8,109,137.9,109,136L109,136z M116.3,136h0.4c0.2,0,0.3,0.1,0.3,0.1l1,0.1
		l0.1-0.2h3.4l0.3,1.8l-0.9,0.8c-0.8,0.4-0.8,1.4,0.1,1.7c0.6,0.1,0.3,1.4-0.5,0.5c-1.3,0,0.7,1.1,0.1,0.9c1.3,0.6,1-0.6,1-0.6
		l0.6-0.5c0.3,1.4,0.6,2.8,1.1,4.1c1.3,3.7,3.4,7.1,6.1,9.9l-9,9c-0.6-0.6-1.1-1.2-1.7-1.9c0.1-0.5,0.4-0.9,0.4-0.9
		c0.9-0.6-0.2-1.5-0.2-1.5c0.1-0.9-0.5-1.9-0.5-1.9c-1.3-0.9-0.9-2.5-0.9-2.5v-1.2c-1.1-1,0.4-1.2,0.4-1.2c0.5-0.9-0.4-1.5-0.4-1.5
		l-0.1-0.9l-1.1-0.1l-0.1-3.4l-2.6-3.7c-0.5-0.2-0.1-1-0.1-1c0.6-0.4-0.1-1.2-0.1-1.2l-0.1-1.6l1.5-0.2l0.4-0.6h0.7l-0.1-1.9
		C115.9,136.2,116.1,136.1,116.3,136L116.3,136z M134,136h0.8c0,0.5,0.1,1,0.2,1.5l-0.4,0.1l-0.1-0.3l-0.2,0.8h-1.3l-0.1-0.9
		l0.8-0.2l0.3-0.4L134,136z M155,137c-0.1,0-0.2,0.1-0.4,0.4v0.9c0,0,1,1.6,1.3,1.8c0.4,0.2,0.9-0.3,0.6-0.5c-1.1-0.7-1-1.7-1.3-2.3
		C155.3,137.1,155.2,137,155,137L155,137z M118,137.6l0.1,0.5h0.4c0.6,1,0.1,3.5,0.1,3.5s-0.9,0.1-1-0.4c-0.1-0.4-0.5,0.9-0.2,1.2
		c0.3,0.2,1.3,0,1.3,0.8c0.1,0.8,0.6-0.5,0.6-0.5v-4.9L118,137.6z M152.1,139.1l-1.3,0.9c0.6,0.1,0.7,0.7,0.8,1
		c0.2,0.6,0.1-1,0.4-0.9C152.3,140.2,152.1,139.1,152.1,139.1z M123.7,139.7c0.6,0.2,1.3,1.2,1.3,1.4c0,0.2,2.8,0.1,2.8,0.1
		c0.8,0.5,1.1,1.8,1.1,1.8c0.8-1,2.4-0.1,1.2,0.5c1.1,0.7,1.1,1.4,1.1,1.4c0.9-0.3,0.9,0.4,0.9,0.7c0,0.2,0.3-1.1,0.3-1.1
		c-1.1-0.8,1.4-1.1,0.7,0.4l-0.4,0.6l0.7,0.6l0.1,1.7c1.6-0.1,1.1-2.1,1.1-2.1l0.7-0.2c0-0.6,0.5-0.3,0.5-0.3
		c-0.3-1.7,0.3-2.4,0.8-2.7c0.6,1.1,1.3,2,2.1,2.9l-8.1,8.1c-2.5-2.6-4.4-5.7-5.6-9.1C124.4,142.8,124,141.2,123.7,139.7
		L123.7,139.7z M187.9,141.3c-0.6,0-1.3,0.4-1.1,0.7c0.4,0.6,1.1,0.3,1.4,0.4c0.3,0.1,0.6,0.2,0.3-0.6
		C188.4,141.5,188.2,141.4,187.9,141.3L187.9,141.3z M120.5,142.3c-0.2,0-0.3,0.1-0.3,0.3c0,0,0,0,0,0c0,0.2,0.1,0.3,0.3,0.3
		c0.2,0,0.3-0.1,0.3-0.3l0,0C120.8,142.5,120.7,142.4,120.5,142.3C120.5,142.3,120.5,142.3,120.5,142.3z M119.7,143.3l-1.1,0.7
		l-0.7-0.4v1.7l1.1,1.5l0.4-1l0.1-0.7l-0.5-0.2l0.1-1.1l0.4-0.1L119.7,143.3z M146,145.1l-0.6,0.1l0.1,1l0.4,0.4l0.8,0.2
		c0,0,1.1-0.3,1.1-1.2l-1.6-0.1L146,145.1z M154.9,145.7c0.6,0,0.5,1.4,0.4,1.9c-0.4,0.2-0.8,0.3-1.3,0.5v-1.6l0.7-0.8
		C154.8,145.7,154.9,145.7,154.9,145.7L154.9,145.7z M139.9,146.5c2.5,2.2,5.6,3.5,8.9,3.8v0c0,0-0.3,0.6,0,0.8l0.1,0
		c0.2,0.1,0.2,0.1,0.3,0.3l-0.2,0.4l0,0c-0.2-0.3-0.4,0.3-0.2,0.5c0.2,0.2-0.4,0.1-0.4,0.3c0,0.2-0.2,0.3,0,0.4
		c0.2,0.1,0,0.2-0.3,0.3c-0.2,0.2,0.9,0.2,0.9,0.2s-0.2-0.4,0-0.4h0.1v0.7c-0.1,0-0.2,0-0.3-0.1v0.5l-0.6,0.1l0.5,0.6l0.4,0.1v1.2
		l0,0.1c0,0.9-2.3,0.3-2.6,0.1l-0.1,1.3l-0.4,0.1l0.1,0.9l-0.1,1.2l0.8-0.1v0.5l1.9,0.1l0.4-0.4v1.3l0,0.1l-1.3,0.1l-0.6,0.3
		l-0.2-0.4h-0.6l-0.3,0.5c-1.7-0.2-3.3-0.6-4.9-1.2v0c-3.5-1.2-6.8-3.2-9.5-5.8L139.9,146.5z M72.3,147.2c1,6.3-1.5,11.8-2.1,17.8
		c-0.5,4.7,0.3,9.5,2.3,13.8c0.6,1.2,1.6,2.3,1.9,3.6c-1.8-1.7-3.1-3.8-4.4-5.8c-5.9-9.6-18.4-15.8-19.2-27.5
		c-0.4,5.2,0,10.7,1.7,15.3c2.4,6.4,7,11.3,12.4,15.5c5.5,4.3,12.1,7.7,17.1,11.6c-1-2.5-2.6-4.8-3.3-7.4
		C75.7,172,77.4,158.2,72.3,147.2L72.3,147.2z M227.8,147.2c-5.1,11-3.5,24.8-6.4,36.7c-0.7,2.6-2.3,4.9-3.3,7.4
		c5-3.8,11.6-7.2,17.1-11.6c5.3-4.2,10-9.1,12.4-15.5c1.7-4.6,2.2-10.1,1.8-15.3c-0.8,11.7-13.3,17.9-19.2,27.5
		c-1.3,2-2.6,4.2-4.4,5.8c0.3-1.2,1.3-2.3,1.9-3.6c1.9-4.1,2.8-8.9,2.3-13.8C229.3,159,226.8,153.5,227.8,147.2L227.8,147.2z
		 M165.9,147.4c0.2,0,0.3,0.1,0.2,0.3c-0.2,0.6,0,0.9,0,0.9c0.9-0.9,1.7,0.1,1.6,0.3c-0.1,0.2,0.5,0.4,0.9,0.2
		c0.4-0.2,0.8,0.6,0.6,1.1c-0.1,0.4-1.4,0.4-1.5-0.1c-0.1-0.4-0.3-0.3-0.4-0.1c-0.1,0.2-0.6,0.3-1,0.2l-0.3-0.3c0-0.1,0.1-0.2,0-0.3
		c-0.1-0.1-0.2-0.1-0.4-0.1l-0.7-0.6c0-0.4,0.1-1,0.1-1.2C165.1,147.7,165.6,147.4,165.9,147.4L165.9,147.4z M119.8,147.7l-0.5,0.1
		l-0.1,0.6l0.6,0.1V147.7z M208.4,148.3c-0.3,0-0.6,0.1-0.8,0.3l0.2,0.4c0.3-0.2,0.6-0.3,0.7-0.2l0,0l0.4-0.1c0-0.1-0.1-0.2-0.2-0.3
		C208.6,148.3,208.5,148.3,208.4,148.3L208.4,148.3z M120,149.1c-0.2,0-0.3,0.1-0.3,0.3v0c0,0.2,0.2,0.3,0.3,0.3
		c0.1,0,0.2-0.1,0.3-0.3C120.3,149.2,120.2,149.1,120,149.1z M155.4,149.4c0,0.1,0,0.3,0.1,0.4l0.4,0.2l-0.6,0.5l-0.6,0.6l-0.7-0.2
		l-0.9-0.1l-0.3-0.5l-0.5-0.1l-0.1,1l-0.4,0.4l-0.8,0.9c0.9,0,0.3,0.5-0.1,0.7v-2.9c0.9-0.1,1.8-0.2,2.7-0.4l0.1,0.1h0.6l0-0.4
		C154.7,149.6,155,149.5,155.4,149.4L155.4,149.4z M120.5,150.6c-0.2,0-0.3,0.1-0.3,0.3v0c0,0.2,0.1,0.3,0.3,0.3c0,0,0,0,0,0
		c0.2,0,0.3-0.1,0.3-0.3v0C120.8,150.7,120.7,150.6,120.5,150.6C120.5,150.6,120.5,150.6,120.5,150.6z M147.3,150.8
		c-0.4,0-0.7,1.1-0.8,1.4c0,0,0.2,0.6,0.5,0.5c0.3-0.1,0.5-0.2,0.8-0.3c0.3,0,0.4-0.5,0.5-0.9c0.1-0.4-0.1-0.7-0.1-0.7
		s-0.3,0.4-0.7,0C147.4,150.8,147.4,150.8,147.3,150.8L147.3,150.8z M119.2,151.4l-0.6,0.1v0.5l0.6-0.1V151.4z M161.9,151.4h0.5
		l0.1,0.4l2.2,0.2l0.1,0c0.8,0.5,0.4,1.1,0.1,1.3c-0.2,0.1-0.5,0.1-0.8,0.2l-0.2,0.3l-1.8,0.1l-0.2,0.7c-0.9-0.1-1.3,0.9-1.1,1.4
		c0.2,0.5,0,0.9,0,0.9l0.8,0.4l1-0.3c0.1-0.7,0.8-0.9,1.3-1.3c0.6-0.4,1.5,0.8,1.2,1.4c0,0.1-0.1,0.1-0.1,0.2
		c-1.1,0.7-2.2,1.4-3.4,2c-1.9,0.9-3.9,1.6-5.9,2.1l-0.1-0.1l-0.8-0.2l-0.1-1.1c-0.1-0.7-1.5-0.7-1.4-0.2c0.1,0.5-2.5,0.2-2.5,0.2
		v-2l0.7-0.8l1.6-0.4c0.1-0.7,0.9,0.2,0.9,0.2c0.7-0.1,0.9,0.4,0.9,0.4l0.9,0.1c0.8,0.2,0.3,0.3,0.4,0.6c0.1,0.4,0.4,0.3,0.4,0.3
		l0.1-0.9l0.4,0.1l-0.4-0.5l-0.8-0.4l-0.9-0.4c-0.6-0.8,0.2-0.6,0.7-0.6h0.9c0,0,1.1,1.4,1.1,1.8s0.5,0.4,0.5,0.4l0.6-0.1l0.2,0.5
		h0.6l0.2,0.4h1.3l0.1-0.6l-1.2-0.2l-0.1-0.7l-0.8-0.2c-0.3-1.2,0.2-1.6,0.6-1l0.4,0.1l-0.1-1.1l0.5-0.2l-0.1-1.5l-0.4-0.2v-0.5
		l1.8,0.1C161.6,151.8,161.8,151.4,161.9,151.4L161.9,151.4z M213.2,154.7l-0.4,0.2c0,0.1,0.1,0.2,0.1,0.3c0,0.1,0,0.3,0.2,0.4
		c0.1,0.1,0.2,0.1,0.3,0.1l-0.1-0.4c0,0,0.1,0,0.1,0.1l0-0.1C213.3,155,213.2,154.8,213.2,154.7L213.2,154.7z M212.8,155.5l-0.4,0.1
		c0.1,0.4,0.3,0.9,0.3,0.9l0.4-0.2C213,156.3,212.9,155.9,212.8,155.5L212.8,155.5z M179.5,155.9v1.4h0.5v-1.4L179.5,155.9z
		 M164.1,156.2l-0.6,0.4l0.2,0.4l0.6-0.4L164.1,156.2z M210.4,157.2c0,0.3,0,0.8,0.4,0.8l0.1-0.4h0c0,0-0.1-0.2-0.1-0.4L210.4,157.2
		z M210.1,158c-0.1,0-0.3,0.1-0.5,0.2c-0.4,0.3-0.3,1.3,0,1.1c0.3-0.3,0.6,0,0.6-0.8C210.4,158.1,210.3,158,210.1,158L210.1,158z
		 M166.1,158.6l1.7,0.9c0.2,0.3,1.1,0.2,1.1,0.2l0.3,0.4c0,0,0.6-0.1,0.9,0.4c0.4,0.4,2.2,0.1,2.2,0.1l0.5,0.4l0.8,0.3l1.3,0
		l0.8,0.8c-1.3,0.6-3.9,0.4-4,0.2c-0.2-0.2-1.7-0.9-1.7-0.9s-1.1-0.9-1.3-0.6c-0.2,0.3-1.2-0.4-1.2-0.1c0,0.2-0.9-0.5-0.9-0.5
		l-1.4-0.5l1.1-0.2l-0.2-0.7L166.1,158.6L166.1,158.6z M89,162.8v0.7h0.6v0.9H90l-0.1-1.1l-0.6-0.2v-0.4L89,162.8z M192.6,163.2
		l-0.1,0.6l0.7,0.1l0.1-0.6L192.6,163.2z M192,164.7l-0.1,0.4c0,0,0.1,0,0.1,0.1l0.1,0.4c0,0-0.1,0.1-0.1,0.1l0.3,0.3
		c0.2-0.3,0.3-0.5,0.3-0.7C192.5,164.9,192.1,164.7,192,164.7L192,164.7z M179.6,166l3.1,3.1c-0.1,0.5-0.6,0.8-0.9,0.6
		c-0.3-0.2,0.4,0.4,0.5,0.6c0.2,0.3,0.6,0.3,0.7,0c0.1-0.2,0.1-0.5,0.1-0.8l1.4,1.4c-0.2,0.4-0.4,0.7-0.3,1l0.6,0.3l0.1,1.2
		c0.5,0.5,1.5,0.5,2.4,0.3l0.3,0.3c-2.6,2.5-5.5,4.8-8.6,6.8v-0.7c1.3-0.9,1.3-2.6,0.1-2.7c-0.9-0.1-0.5-1.1,0.4-1.2l0.5-0.2v-0.7
		l1.6-1.5v-1.1l-3.5-2.9c-0.7-0.3-0.8-1.2-0.5-2C178.4,167.2,179,166.6,179.6,166L179.6,166z M92.5,166.1l0.5,1.3l0.3,0.7l0.6,0.8
		l0.8,0.7l0.3-0.5l-0.5-1.1l-0.5-0.4l-0.4-1L92.5,166.1z M78.7,167.2c4.3,8.6,2.5,19.7,8,27.8c1.7,2.5,4.2,5,6.5,7l-0.1,0.1
		c-2-1-3.9-2.4-5.7-3.9c-9.8-8.1-24.5-9.2-30.3-22.4c1.6,9.7,9.3,18.3,17.7,23.8c7.9,5.2,18.1,4.6,26.9,7.5
		c-8.1-6.6-9.4-16.4-13-25.1C86.3,176.7,82.6,171.9,78.7,167.2L78.7,167.2z M221.3,167.2c-3.9,4.7-7.6,9.5-9.8,14.9
		c-3.6,8.6-4.9,18.5-13,25.1c8.8-2.9,19-2.3,26.9-7.5c8.3-5.5,16.1-14.1,17.7-23.8c-5.9,13.3-20.6,14.3-30.3,22.4
		c-1.9,1.5-3.7,3-5.7,3.9l-0.1-0.1c2.3-2,4.7-4.5,6.4-7C218.9,186.9,217,175.8,221.3,167.2L221.3,167.2z M110.1,170.3
		c0.6,0,1.5,0.7,1.5,1c0.1,0.2,0.3,0.4,0.5,0.5l-1.1,1c-0.7-0.7-1.3-1.4-1.9-2.1h0.3C109.5,170.4,109.8,170.3,110.1,170.3
		L110.1,170.3z M151.7,174.3c0.1,0,0.2,0,0.4,0c0.4,0,0.8,0.1,1.2,0.4c0.8,0.6,1.8,0.2,1.8,0.2l0.8,1c-1.6,0.2-3.3,0.4-5,0.4v-1.7
		C151.1,174.4,151.4,174.3,151.7,174.3L151.7,174.3z M188.9,175.3l8.9,8.9c-5,4.9-10.8,9-17,12.1c-9.3,4.7-19.6,7.2-30,7.4v-12.7
		c5.1-0.1,10.2-0.8,15.1-2.3l1.2,0.4l0.3,1.2l0.6-0.1l0.4-0.4l1.7-0.1l0.9-0.8l0.9-0.1l6.7-5.7C182.4,181,185.8,178.3,188.9,175.3
		L188.9,175.3z M156.7,177.4l0.2,0.3l1.2,0.4l0.8,0.2l0.3,1.2l0.6,0.1l0.2,0.8c0.8,0.6-0.2,1.8-0.2,1.8v1.6l0.6,0.3l-0.1,0.6
		l0.9,0.9l1.1,0.1l1.8,1.9c-4.3,1.2-8.8,1.8-13.2,1.9v-11.5C152.8,177.9,154.8,177.7,156.7,177.4L156.7,177.4z M139.6,178.6
		l-0.4,0.4l-0.2,0.2l0.2,0.2l0.5,0.4l0.3-0.3l-0.3-0.2l0.2-0.2L139.6,178.6z M144.6,183.7l-0.2,0.4l0.4,0.2l-0.1,0.1l0.3,0.3
		l0.4-0.4l0.2-0.2l-0.3-0.1L144.6,183.7z M108.7,187.4l0.6,0.9l0.1,0.6l0.7,0.2l0.3,0.4l0.5-0.3l-0.4-0.9l-0.9-0.8L108.7,187.4z
		 M92.7,188.2c5.3,7.2,6.8,17.6,16.6,21.2c1.7,0.6,3.7,0.8,5.2,1.7c-1.9,0.3-3.5-0.3-5.3-0.7c-12.5-2.7-27.8,0.8-37.2-9.9
		c3.6,7,10.9,12.5,18,14.8c10.9,3.6,22.3-0.4,32.6-3c1.5-0.4,3.3-0.2,4.6-0.8c-5.7-1.2-11.2-2.9-15.6-6.9
		C105.2,198.9,99.5,192.7,92.7,188.2L92.7,188.2z M207.3,188.2c-6.8,4.5-12.4,10.7-18.8,16.5c-4.4,4-9.9,5.8-15.6,6.9
		c1.4,0.5,3.2,0.4,4.6,0.8c10.3,2.5,21.6,6.6,32.6,3c7-2.3,14.4-7.8,18-14.8c-9.4,10.7-24.7,7.2-37.2,9.9c-1.7,0.4-3.4,1-5.3,0.7
		c1.5-0.9,3.5-1.1,5.2-1.7C200.4,205.7,201.9,195.3,207.3,188.2L207.3,188.2z M139.7,211.4c-9.6,0-18.2,4.6-26.6,8.1
		c-7.6,3.2-17.8,2.5-24.5-2.1c3.3,4.2,7.8,6.8,12.4,8.5c8.6,3.4,18.6,0.8,25.9-3.9c5.3-3.4,9.8-8.1,16-8.1c1.1,0,2.2,0.1,3.3,0.4
		c1.2-0.5,2.5-0.9,3.7-1.3C146.7,211.9,143.2,211.4,139.7,211.4L139.7,211.4z M150,213c1.3,0.4,2.5,0.8,3.7,1.3
		c1.1-0.2,2.2-0.4,3.3-0.4c6.3,0,10.8,4.8,16,8.1c7.3,4.7,17.3,7.3,25.9,3.9c4.6-1.8,9.1-4.3,12.4-8.5c-6.8,4.7-16.9,5.3-24.5,2.1
		c-8.4-3.5-17-8.1-26.6-8.1C156.8,211.3,153.4,211.9,150,213L150,213z M153.7,214.3c-1.2,0.3-2.5,0.7-3.7,1.2
		c7.9,3.2,15.8,11,22.7,18.2c1.4-1.1,2.9-2.4,4-3.7C170.5,224,162.5,217.8,153.7,214.3L153.7,214.3z M150,215.4
		c-1.2-0.5-2.5-0.9-3.7-1.2c-8.8,3.5-16.8,9.7-23,15.7c1.1,1.3,2.6,2.5,4,3.7C134.2,226.4,142.1,218.6,150,215.4L150,215.4z"/>
	<path fill="#FFFFFF" d="M146.3,214.3c0.3-0.3,3.2-1.4,3.7-1.3c0.6,0,3.7,1.2,3.7,1.3c-0.1,0.3-3.3,1.2-3.7,1.2
		C149.8,215.4,146.3,214.4,146.3,214.3L146.3,214.3z"/>
</g>
</svg>
